<svg width="3968" height="296" viewBox="0 0 3968 296" fill="none" xmlns="http://www.w3.org/2000/svg">
<path d="M58.4 240.4C46.1333 240.4 36.4 238.2 29.2 233.8C22.1333 229.267 17.1333 223 14.2 215C11.2667 206.867 9.8 197.333 9.8 186.4V128C9.8 116.8 11.2667 107.2 14.2 99.2C17.1333 91.0667 22.1333 84.8 29.2 80.4C36.4 76 46.1333 73.8 58.4 73.8C70.4 73.8 79.7333 75.8 86.4 79.8C93.2 83.6667 98 89.1333 100.8 96.2C103.6 103.267 105 111.4 105 120.6V134.6H70V118.4C70 115.2 69.8 112.133 69.4 109.2C69.1333 106.267 68.2 103.867 66.6 102C65 100 62.2667 99 58.4 99C54.6667 99 51.8667 100 50 102C48.2667 104 47.1333 106.533 46.6 109.6C46.2 112.533 46 115.667 46 119V195.2C46 198.8 46.2667 202.133 46.8 205.2C47.4667 208.133 48.6667 210.533 50.4 212.4C52.2667 214.133 54.9333 215 58.4 215C62.1333 215 64.8 214.067 66.4 212.2C68 210.2 69 207.667 69.4 204.6C69.8 201.533 70 198.4 70 195.2V178.2H105V192.2C105 201.4 103.6 209.667 100.8 217C98.1333 224.2 93.4 229.933 86.6 234.2C79.9333 238.333 70.5333 240.4 58.4 240.4ZM171.095 240.4C158.962 240.4 149.362 238.267 142.295 234C135.229 229.733 130.162 223.6 127.095 215.6C124.029 207.6 122.495 198.067 122.495 187V126.8C122.495 115.6 124.029 106.067 127.095 98.2C130.162 90.3333 135.229 84.3333 142.295 80.2C149.362 75.9333 158.962 73.8 171.095 73.8C183.362 73.8 193.029 75.9333 200.095 80.2C207.295 84.3333 212.429 90.3333 215.495 98.2C218.562 106.067 220.095 115.6 220.095 126.8V187C220.095 198.067 218.562 207.6 215.495 215.6C212.429 223.6 207.295 229.733 200.095 234C193.029 238.267 183.362 240.4 171.095 240.4ZM171.095 215C174.829 215 177.562 214.067 179.295 212.2C181.029 210.333 182.162 207.933 182.695 205C183.229 202.067 183.495 199.067 183.495 196V118C183.495 114.8 183.229 111.8 182.695 109C182.162 106.067 181.029 103.667 179.295 101.8C177.562 99.9333 174.829 99 171.095 99C167.629 99 165.029 99.9333 163.295 101.8C161.562 103.667 160.429 106.067 159.895 109C159.362 111.8 159.095 114.8 159.095 118V196C159.095 199.067 159.295 202.067 159.695 205C160.229 207.933 161.295 210.333 162.895 212.2C164.629 214.067 167.362 215 171.095 215ZM241.883 238V76H282.883C297.016 76 308.016 77.8 315.883 81.4C323.749 84.8667 329.283 90.4 332.483 98C335.683 105.467 337.283 115.2 337.283 127.2V186C337.283 198.133 335.683 208.067 332.483 215.8C329.283 223.4 323.749 229 315.883 232.6C308.149 236.2 297.283 238 283.283 238H241.883ZM277.683 213.2H283.283C288.749 213.2 292.683 212.4 295.083 210.8C297.483 209.2 298.949 206.8 299.483 203.6C300.149 200.4 300.483 196.4 300.483 191.6V121C300.483 116.2 300.083 112.333 299.283 109.4C298.616 106.467 297.083 104.333 294.683 103C292.283 101.667 288.416 101 283.083 101H277.683V213.2ZM359.07 238V76H431.87V100.4H394.87V140.6H423.07V165.4H394.87V213.8H432.27V238H359.07ZM2196.69 240.4C2184.29 240.4 2174.56 238.4 2167.49 234.4C2160.56 230.267 2155.69 224.333 2152.89 216.6C2150.09 208.733 2148.69 199.133 2148.69 187.8V76H2184.09V193.2C2184.09 196.533 2184.36 199.867 2184.89 203.2C2185.42 206.533 2186.56 209.267 2188.29 211.4C2190.16 213.533 2192.96 214.6 2196.69 214.6C2200.56 214.6 2203.36 213.533 2205.09 211.4C2206.82 209.267 2207.89 206.533 2208.29 203.2C2208.82 199.867 2209.09 196.533 2209.09 193.2V76H2244.69V187.8C2244.69 199.133 2243.22 208.733 2240.29 216.6C2237.49 224.333 2232.62 230.267 2225.69 234.4C2218.76 238.4 2209.09 240.4 2196.69 240.4ZM2267.67 238V76H2303.47V238H2267.67ZM2378.8 238V76H2419.8C2433.93 76 2444.93 77.8 2452.8 81.4C2460.66 84.8667 2466.2 90.4 2469.4 98C2472.6 105.467 2474.2 115.2 2474.2 127.2V186C2474.2 198.133 2472.6 208.067 2469.4 215.8C2466.2 223.4 2460.66 229 2452.8 232.6C2445.06 236.2 2434.2 238 2420.2 238H2378.8ZM2414.6 213.2H2420.2C2425.66 213.2 2429.6 212.4 2432 210.8C2434.4 209.2 2435.86 206.8 2436.4 203.6C2437.06 200.4 2437.4 196.4 2437.4 191.6V121C2437.4 116.2 2437 112.333 2436.2 109.4C2435.53 106.467 2434 104.333 2431.6 103C2429.2 101.667 2425.33 101 2420 101H2414.6V213.2ZM2495.98 238V76H2568.78V100.4H2531.78V140.6H2559.98V165.4H2531.78V213.8H2569.18V238H2495.98ZM2628.44 240.4C2618.3 240.4 2609.84 238.6 2603.04 235C2596.24 231.4 2591.1 225.867 2587.64 218.4C2584.17 210.8 2582.24 201 2581.84 189L2612.44 184.4C2612.57 191.333 2613.17 196.933 2614.24 201.2C2615.44 205.467 2617.04 208.533 2619.04 210.4C2621.17 212.267 2623.7 213.2 2626.64 213.2C2630.37 213.2 2632.77 211.933 2633.84 209.4C2635.04 206.867 2635.64 204.2 2635.64 201.4C2635.64 194.733 2634.04 189.133 2630.84 184.6C2627.64 179.933 2623.3 175.267 2617.84 170.6L2603.84 158.4C2597.7 153.2 2592.5 147.333 2588.24 140.8C2584.1 134.133 2582.04 125.933 2582.04 116.2C2582.04 102.467 2586.1 92 2594.24 84.8C2602.37 77.4667 2613.44 73.8 2627.44 73.8C2636.1 73.8 2643.04 75.2667 2648.24 78.2C2653.57 81.1333 2657.57 85 2660.24 89.8C2663.04 94.4667 2664.9 99.4667 2665.84 104.8C2666.9 110 2667.5 115 2667.64 119.8L2636.84 123.6C2636.7 118.8 2636.37 114.667 2635.84 111.2C2635.44 107.6 2634.5 104.867 2633.04 103C2631.57 101 2629.3 100 2626.24 100C2622.9 100 2620.44 101.4 2618.84 104.2C2617.37 107 2616.64 109.8 2616.64 112.6C2616.64 118.6 2618.04 123.533 2620.84 127.4C2623.77 131.133 2627.57 135.067 2632.24 139.2L2645.64 151C2652.7 157 2658.64 163.8 2663.44 171.4C2668.37 179 2670.84 188.4 2670.84 199.6C2670.84 207.2 2669.1 214.133 2665.64 220.4C2662.17 226.533 2657.24 231.4 2650.84 235C2644.57 238.6 2637.1 240.4 2628.44 240.4ZM2688.37 238V76H2724.17V238H2688.37ZM2790.53 240.4C2779.33 240.4 2770.46 238.067 2763.93 233.4C2757.53 228.733 2752.93 222.2 2750.13 213.8C2747.46 205.267 2746.13 195.467 2746.13 184.4V130C2746.13 118.533 2747.59 108.6 2750.53 100.2C2753.46 91.8 2758.46 85.3333 2765.53 80.8C2772.73 76.1333 2782.46 73.8 2794.73 73.8C2806.73 73.8 2816.13 75.8 2822.93 79.8C2829.86 83.8 2834.79 89.3333 2837.73 96.4C2840.66 103.467 2842.13 111.733 2842.13 121.2V131.6H2807.13V118.4C2807.13 114.933 2806.86 111.733 2806.33 108.8C2805.93 105.867 2804.86 103.533 2803.13 101.8C2801.53 99.9333 2798.86 99 2795.13 99C2791.26 99 2788.46 100.067 2786.73 102.2C2784.99 104.2 2783.86 106.733 2783.33 109.8C2782.93 112.867 2782.73 116.067 2782.73 119.4V194.4C2782.73 198 2783.06 201.4 2783.73 204.6C2784.53 207.667 2785.86 210.2 2787.73 212.2C2789.73 214.067 2792.53 215 2796.13 215C2799.86 215 2802.73 214 2804.73 212C2806.73 210 2808.13 207.4 2808.93 204.2C2809.73 201 2810.13 197.6 2810.13 194V175H2795.53V154H2842.33V238H2818.73L2816.73 224.6C2814.59 229.133 2811.46 232.933 2807.33 236C2803.19 238.933 2797.59 240.4 2790.53 240.4ZM2864.73 238V76H2889.93L2923.13 154V76H2952.73V238H2928.53L2895.33 154V238H2864.73Z" fill="#161616"/>
<path d="M499.895 238V76H535.695V238H499.895ZM602.852 240.4C592.718 240.4 584.252 238.6 577.452 235C570.652 231.4 565.518 225.867 562.052 218.4C558.585 210.8 556.652 201 556.252 189L586.852 184.4C586.985 191.333 587.585 196.933 588.652 201.2C589.852 205.467 591.452 208.533 593.452 210.4C595.585 212.267 598.118 213.2 601.052 213.2C604.785 213.2 607.185 211.933 608.252 209.4C609.452 206.867 610.052 204.2 610.052 201.4C610.052 194.733 608.452 189.133 605.252 184.6C602.052 179.933 597.718 175.267 592.252 170.6L578.252 158.4C572.118 153.2 566.918 147.333 562.652 140.8C558.518 134.133 556.452 125.933 556.452 116.2C556.452 102.467 560.518 92 568.652 84.8C576.785 77.4667 587.852 73.8 601.852 73.8C610.518 73.8 617.452 75.2667 622.652 78.2C627.985 81.1333 631.985 85 634.652 89.8C637.452 94.4667 639.318 99.4667 640.252 104.8C641.318 110 641.918 115 642.052 119.8L611.252 123.6C611.118 118.8 610.785 114.667 610.252 111.2C609.852 107.6 608.918 104.867 607.452 103C605.985 101 603.718 100 600.652 100C597.318 100 594.852 101.4 593.252 104.2C591.785 107 591.052 109.8 591.052 112.6C591.052 118.6 592.452 123.533 595.252 127.4C598.185 131.133 601.985 135.067 606.652 139.2L620.052 151C627.118 157 633.052 163.8 637.852 171.4C642.785 179 645.252 188.4 645.252 199.6C645.252 207.2 643.518 214.133 640.052 220.4C636.585 226.533 631.652 231.4 625.252 235C618.985 238.6 611.518 240.4 602.852 240.4ZM713.158 238L715.958 76H754.358L772.158 170.2L791.358 76H828.358L831.158 238H805.758L802.758 130.2L783.958 238H761.358L741.358 129.4L738.958 238H713.158ZM873.416 238V171.8L842.616 76H876.416L891.816 127.2L905.616 76H938.016L907.816 171.8V238H873.416ZM1002.82 238V76H1057.22C1066.95 76 1074.95 77.8667 1081.22 81.6C1087.49 85.2 1092.15 90.5333 1095.22 97.6C1098.29 104.533 1099.82 113 1099.82 123C1099.82 135.533 1097.75 145.133 1093.62 151.8C1089.49 158.333 1083.89 162.867 1076.82 165.4C1069.75 167.933 1061.82 169.2 1053.02 169.2H1038.62V238H1002.82ZM1038.62 144.2H1050.62C1055.02 144.2 1058.35 143.4 1060.62 141.8C1062.89 140.2 1064.35 137.8 1065.02 134.6C1065.82 131.4 1066.22 127.333 1066.22 122.4C1066.22 118.267 1065.89 114.667 1065.22 111.6C1064.69 108.4 1063.29 105.867 1061.02 104C1058.75 102.133 1055.22 101.2 1050.42 101.2H1038.62V144.2ZM1099.9 238L1130.5 76H1171.3L1201.5 238H1168.5L1163.1 203.8H1139.3L1133.7 238H1099.9ZM1142.5 182.4H1159.7L1151.1 119.2L1142.5 182.4ZM1259.3 240.4C1249.16 240.4 1240.7 238.6 1233.9 235C1227.1 231.4 1221.96 225.867 1218.5 218.4C1215.03 210.8 1213.1 201 1212.7 189L1243.3 184.4C1243.43 191.333 1244.03 196.933 1245.1 201.2C1246.3 205.467 1247.9 208.533 1249.9 210.4C1252.03 212.267 1254.56 213.2 1257.5 213.2C1261.23 213.2 1263.63 211.933 1264.7 209.4C1265.9 206.867 1266.5 204.2 1266.5 201.4C1266.5 194.733 1264.9 189.133 1261.7 184.6C1258.5 179.933 1254.16 175.267 1248.7 170.6L1234.7 158.4C1228.56 153.2 1223.36 147.333 1219.1 140.8C1214.96 134.133 1212.9 125.933 1212.9 116.2C1212.9 102.467 1216.96 92 1225.1 84.8C1233.23 77.4667 1244.3 73.8 1258.3 73.8C1266.96 73.8 1273.9 75.2667 1279.1 78.2C1284.43 81.1333 1288.43 85 1291.1 89.8C1293.9 94.4667 1295.76 99.4667 1296.7 104.8C1297.76 110 1298.36 115 1298.5 119.8L1267.7 123.6C1267.56 118.8 1267.23 114.667 1266.7 111.2C1266.3 107.6 1265.36 104.867 1263.9 103C1262.43 101 1260.16 100 1257.1 100C1253.76 100 1251.3 101.4 1249.7 104.2C1248.23 107 1247.5 109.8 1247.5 112.6C1247.5 118.6 1248.9 123.533 1251.7 127.4C1254.63 131.133 1258.43 135.067 1263.1 139.2L1276.5 151C1283.56 157 1289.5 163.8 1294.3 171.4C1299.23 179 1301.7 188.4 1301.7 199.6C1301.7 207.2 1299.96 214.133 1296.5 220.4C1293.03 226.533 1288.1 231.4 1281.7 235C1275.43 238.6 1267.96 240.4 1259.3 240.4ZM1358.91 240.4C1348.77 240.4 1340.31 238.6 1333.51 235C1326.71 231.4 1321.57 225.867 1318.11 218.4C1314.64 210.8 1312.71 201 1312.31 189L1342.91 184.4C1343.04 191.333 1343.64 196.933 1344.71 201.2C1345.91 205.467 1347.51 208.533 1349.51 210.4C1351.64 212.267 1354.17 213.2 1357.11 213.2C1360.84 213.2 1363.24 211.933 1364.31 209.4C1365.51 206.867 1366.11 204.2 1366.11 201.4C1366.11 194.733 1364.51 189.133 1361.31 184.6C1358.11 179.933 1353.77 175.267 1348.31 170.6L1334.31 158.4C1328.17 153.2 1322.97 147.333 1318.71 140.8C1314.57 134.133 1312.51 125.933 1312.51 116.2C1312.51 102.467 1316.57 92 1324.71 84.8C1332.84 77.4667 1343.91 73.8 1357.91 73.8C1366.57 73.8 1373.51 75.2667 1378.71 78.2C1384.04 81.1333 1388.04 85 1390.71 89.8C1393.51 94.4667 1395.37 99.4667 1396.31 104.8C1397.37 110 1397.97 115 1398.11 119.8L1367.31 123.6C1367.17 118.8 1366.84 114.667 1366.31 111.2C1365.91 107.6 1364.97 104.867 1363.51 103C1362.04 101 1359.77 100 1356.71 100C1353.37 100 1350.91 101.4 1349.31 104.2C1347.84 107 1347.11 109.8 1347.11 112.6C1347.11 118.6 1348.51 123.533 1351.31 127.4C1354.24 131.133 1358.04 135.067 1362.71 139.2L1376.11 151C1383.17 157 1389.11 163.8 1393.91 171.4C1398.84 179 1401.31 188.4 1401.31 199.6C1401.31 207.2 1399.57 214.133 1396.11 220.4C1392.64 226.533 1387.71 231.4 1381.31 235C1375.04 238.6 1367.57 240.4 1358.91 240.4ZM1418.84 238V76H1454.64V238H1418.84ZM1525.2 240.4C1513.06 240.4 1503.46 238.267 1496.4 234C1489.33 229.733 1484.26 223.6 1481.2 215.6C1478.13 207.6 1476.6 198.067 1476.6 187V126.8C1476.6 115.6 1478.13 106.067 1481.2 98.2C1484.26 90.3333 1489.33 84.3333 1496.4 80.2C1503.46 75.9333 1513.06 73.8 1525.2 73.8C1537.46 73.8 1547.13 75.9333 1554.2 80.2C1561.4 84.3333 1566.53 90.3333 1569.6 98.2C1572.66 106.067 1574.2 115.6 1574.2 126.8V187C1574.2 198.067 1572.66 207.6 1569.6 215.6C1566.53 223.6 1561.4 229.733 1554.2 234C1547.13 238.267 1537.46 240.4 1525.2 240.4ZM1525.2 215C1528.93 215 1531.66 214.067 1533.4 212.2C1535.13 210.333 1536.26 207.933 1536.8 205C1537.33 202.067 1537.6 199.067 1537.6 196V118C1537.6 114.8 1537.33 111.8 1536.8 109C1536.26 106.067 1535.13 103.667 1533.4 101.8C1531.66 99.9333 1528.93 99 1525.2 99C1521.73 99 1519.13 99.9333 1517.4 101.8C1515.66 103.667 1514.53 106.067 1514 109C1513.46 111.8 1513.2 114.8 1513.2 118V196C1513.2 199.067 1513.4 202.067 1513.8 205C1514.33 207.933 1515.4 210.333 1517 212.2C1518.73 214.067 1521.46 215 1525.2 215ZM1595.98 238V76H1621.18L1654.38 154V76H1683.98V238H1659.78L1626.58 154V238H1595.98ZM1751.47 238L1782.07 76H1822.87L1853.07 238H1820.07L1814.67 203.8H1790.87L1785.27 238H1751.47ZM1794.07 182.4H1811.27L1802.67 119.2L1794.07 182.4ZM1869.42 238V76H1894.62L1927.82 154V76H1957.42V238H1933.22L1900.02 154V238H1869.42ZM1981.53 238V76H2022.53C2036.66 76 2047.66 77.8 2055.53 81.4C2063.4 84.8667 2068.93 90.4 2072.13 98C2075.33 105.467 2076.93 115.2 2076.93 127.2V186C2076.93 198.133 2075.33 208.067 2072.13 215.8C2068.93 223.4 2063.4 229 2055.53 232.6C2047.8 236.2 2036.93 238 2022.93 238H1981.53ZM2017.33 213.2H2022.93C2028.4 213.2 2032.33 212.4 2034.73 210.8C2037.13 209.2 2038.6 206.8 2039.13 203.6C2039.8 200.4 2040.13 196.4 2040.13 191.6V121C2040.13 116.2 2039.73 112.333 2038.93 109.4C2038.26 106.467 2036.73 104.333 2034.33 103C2031.93 101.667 2028.06 101 2022.73 101H2017.33V213.2ZM3042.62 238V102.6H3018.22V76H3102.82V102.6H3078.62V238H3042.62ZM3161.92 240.4C3149.78 240.4 3140.18 238.267 3133.12 234C3126.05 229.733 3120.98 223.6 3117.92 215.6C3114.85 207.6 3113.32 198.067 3113.32 187V126.8C3113.32 115.6 3114.85 106.067 3117.92 98.2C3120.98 90.3333 3126.05 84.3333 3133.12 80.2C3140.18 75.9333 3149.78 73.8 3161.92 73.8C3174.18 73.8 3183.85 75.9333 3190.92 80.2C3198.12 84.3333 3203.25 90.3333 3206.32 98.2C3209.38 106.067 3210.92 115.6 3210.92 126.8V187C3210.92 198.067 3209.38 207.6 3206.32 215.6C3203.25 223.6 3198.12 229.733 3190.92 234C3183.85 238.267 3174.18 240.4 3161.92 240.4ZM3161.92 215C3165.65 215 3168.38 214.067 3170.12 212.2C3171.85 210.333 3172.98 207.933 3173.52 205C3174.05 202.067 3174.32 199.067 3174.32 196V118C3174.32 114.8 3174.05 111.8 3173.52 109C3172.98 106.067 3171.85 103.667 3170.12 101.8C3168.38 99.9333 3165.65 99 3161.92 99C3158.45 99 3155.85 99.9333 3154.12 101.8C3152.38 103.667 3151.25 106.067 3150.72 109C3150.18 111.8 3149.92 114.8 3149.92 118V196C3149.92 199.067 3150.12 202.067 3150.52 205C3151.05 207.933 3152.12 210.333 3153.72 212.2C3155.45 214.067 3158.18 215 3161.92 215ZM3279.1 240.4C3266.97 240.4 3257.37 238.267 3250.3 234C3243.24 229.733 3238.17 223.6 3235.1 215.6C3232.04 207.6 3230.5 198.067 3230.5 187V126.8C3230.5 115.6 3232.04 106.067 3235.1 98.2C3238.17 90.3333 3243.24 84.3333 3250.3 80.2C3257.37 75.9333 3266.97 73.8 3279.1 73.8C3291.37 73.8 3301.04 75.9333 3308.1 80.2C3315.3 84.3333 3320.44 90.3333 3323.5 98.2C3326.57 106.067 3328.1 115.6 3328.1 126.8V187C3328.1 198.067 3326.57 207.6 3323.5 215.6C3320.44 223.6 3315.3 229.733 3308.1 234C3301.04 238.267 3291.37 240.4 3279.1 240.4ZM3279.1 215C3282.84 215 3285.57 214.067 3287.3 212.2C3289.04 210.333 3290.17 207.933 3290.7 205C3291.24 202.067 3291.5 199.067 3291.5 196V118C3291.5 114.8 3291.24 111.8 3290.7 109C3290.17 106.067 3289.04 103.667 3287.3 101.8C3285.57 99.9333 3282.84 99 3279.1 99C3275.64 99 3273.04 99.9333 3271.3 101.8C3269.57 103.667 3268.44 106.067 3267.9 109C3267.37 111.8 3267.1 114.8 3267.1 118V196C3267.1 199.067 3267.3 202.067 3267.7 205C3268.24 207.933 3269.3 210.333 3270.9 212.2C3272.64 214.067 3275.37 215 3279.1 215ZM3357.09 196.8L3347.69 76.4H3380.09L3368.29 196.8H3357.09ZM3347.09 238V207.6H3377.89V238H3347.09Z" fill="white"/>
<path d="M499.2 238V76H535V238H499.2ZM602.156 240.4C592.023 240.4 583.556 238.6 576.756 235C569.956 231.4 564.823 225.867 561.356 218.4C557.89 210.8 555.956 201 555.556 189L586.156 184.4C586.29 191.333 586.89 196.933 587.956 201.2C589.156 205.467 590.756 208.533 592.756 210.4C594.89 212.267 597.423 213.2 600.356 213.2C604.09 213.2 606.49 211.933 607.556 209.4C608.756 206.867 609.356 204.2 609.356 201.4C609.356 194.733 607.756 189.133 604.556 184.6C601.356 179.933 597.023 175.267 591.556 170.6L577.556 158.4C571.423 153.2 566.223 147.333 561.956 140.8C557.823 134.133 555.756 125.933 555.756 116.2C555.756 102.467 559.823 92 567.956 84.8C576.09 77.4667 587.156 73.8 601.156 73.8C609.823 73.8 616.756 75.2667 621.956 78.2C627.29 81.1333 631.29 85 633.956 89.8C636.756 94.4667 638.623 99.4667 639.556 104.8C640.623 110 641.223 115 641.356 119.8L610.556 123.6C610.423 118.8 610.09 114.667 609.556 111.2C609.156 107.6 608.223 104.867 606.756 103C605.29 101 603.023 100 599.956 100C596.623 100 594.156 101.4 592.556 104.2C591.09 107 590.356 109.8 590.356 112.6C590.356 118.6 591.756 123.533 594.556 127.4C597.49 131.133 601.29 135.067 605.956 139.2L619.356 151C626.423 157 632.356 163.8 637.156 171.4C642.09 179 644.556 188.4 644.556 199.6C644.556 207.2 642.823 214.133 639.356 220.4C635.89 226.533 630.956 231.4 624.556 235C618.29 238.6 610.823 240.4 602.156 240.4ZM712.463 238L715.263 76H753.663L771.463 170.2L790.663 76H827.663L830.463 238H805.063L802.062 130.2L783.263 238H760.663L740.663 129.4L738.263 238H712.463ZM872.72 238V171.8L841.92 76H875.72L891.12 127.2L904.92 76H937.32L907.12 171.8V238H872.72ZM1002.13 238V76H1056.53C1066.26 76 1074.26 77.8667 1080.53 81.6C1086.79 85.2 1091.46 90.5333 1094.53 97.6C1097.59 104.533 1099.13 113 1099.13 123C1099.13 135.533 1097.06 145.133 1092.92 151.8C1088.79 158.333 1083.19 162.867 1076.13 165.4C1069.06 167.933 1061.13 169.2 1052.33 169.2H1037.93V238H1002.13ZM1037.93 144.2H1049.93C1054.33 144.2 1057.66 143.4 1059.93 141.8C1062.19 140.2 1063.66 137.8 1064.33 134.6C1065.13 131.4 1065.53 127.333 1065.53 122.4C1065.53 118.267 1065.19 114.667 1064.53 111.6C1063.99 108.4 1062.59 105.867 1060.33 104C1058.06 102.133 1054.53 101.2 1049.73 101.2H1037.93V144.2ZM1099.21 238L1129.81 76H1170.61L1200.81 238H1167.81L1162.41 203.8H1138.61L1133.01 238H1099.21ZM1141.81 182.4H1159.01L1150.41 119.2L1141.81 182.4ZM1258.6 240.4C1248.47 240.4 1240 238.6 1233.2 235C1226.4 231.4 1221.27 225.867 1217.8 218.4C1214.33 210.8 1212.4 201 1212 189L1242.6 184.4C1242.73 191.333 1243.33 196.933 1244.4 201.2C1245.6 205.467 1247.2 208.533 1249.2 210.4C1251.33 212.267 1253.87 213.2 1256.8 213.2C1260.53 213.2 1262.93 211.933 1264 209.4C1265.2 206.867 1265.8 204.2 1265.8 201.4C1265.8 194.733 1264.2 189.133 1261 184.6C1257.8 179.933 1253.47 175.267 1248 170.6L1234 158.4C1227.87 153.2 1222.67 147.333 1218.4 140.8C1214.27 134.133 1212.2 125.933 1212.2 116.2C1212.2 102.467 1216.27 92 1224.4 84.8C1232.53 77.4667 1243.6 73.8 1257.6 73.8C1266.27 73.8 1273.2 75.2667 1278.4 78.2C1283.73 81.1333 1287.73 85 1290.4 89.8C1293.2 94.4667 1295.07 99.4667 1296 104.8C1297.07 110 1297.67 115 1297.8 119.8L1267 123.6C1266.87 118.8 1266.53 114.667 1266 111.2C1265.6 107.6 1264.67 104.867 1263.2 103C1261.73 101 1259.47 100 1256.4 100C1253.07 100 1250.6 101.4 1249 104.2C1247.53 107 1246.8 109.8 1246.8 112.6C1246.8 118.6 1248.2 123.533 1251 127.4C1253.93 131.133 1257.73 135.067 1262.4 139.2L1275.8 151C1282.87 157 1288.8 163.8 1293.6 171.4C1298.53 179 1301 188.4 1301 199.6C1301 207.2 1299.27 214.133 1295.8 220.4C1292.33 226.533 1287.4 231.4 1281 235C1274.73 238.6 1267.27 240.4 1258.6 240.4ZM1358.21 240.4C1348.08 240.4 1339.61 238.6 1332.81 235C1326.01 231.4 1320.88 225.867 1317.41 218.4C1313.94 210.8 1312.01 201 1311.61 189L1342.21 184.4C1342.34 191.333 1342.94 196.933 1344.01 201.2C1345.21 205.467 1346.81 208.533 1348.81 210.4C1350.94 212.267 1353.48 213.2 1356.41 213.2C1360.14 213.2 1362.54 211.933 1363.61 209.4C1364.81 206.867 1365.41 204.2 1365.41 201.4C1365.41 194.733 1363.81 189.133 1360.61 184.6C1357.41 179.933 1353.08 175.267 1347.61 170.6L1333.61 158.4C1327.48 153.2 1322.28 147.333 1318.01 140.8C1313.88 134.133 1311.81 125.933 1311.81 116.2C1311.81 102.467 1315.88 92 1324.01 84.8C1332.14 77.4667 1343.21 73.8 1357.21 73.8C1365.88 73.8 1372.81 75.2667 1378.01 78.2C1383.34 81.1333 1387.34 85 1390.01 89.8C1392.81 94.4667 1394.68 99.4667 1395.61 104.8C1396.68 110 1397.28 115 1397.41 119.8L1366.61 123.6C1366.48 118.8 1366.14 114.667 1365.61 111.2C1365.21 107.6 1364.28 104.867 1362.81 103C1361.34 101 1359.08 100 1356.01 100C1352.68 100 1350.21 101.4 1348.61 104.2C1347.14 107 1346.41 109.8 1346.41 112.6C1346.41 118.6 1347.81 123.533 1350.61 127.4C1353.54 131.133 1357.34 135.067 1362.01 139.2L1375.41 151C1382.48 157 1388.41 163.8 1393.21 171.4C1398.14 179 1400.61 188.4 1400.61 199.6C1400.61 207.2 1398.88 214.133 1395.41 220.4C1391.94 226.533 1387.01 231.4 1380.61 235C1374.34 238.6 1366.88 240.4 1358.21 240.4ZM1418.15 238V76H1453.95V238H1418.15ZM1524.5 240.4C1512.37 240.4 1502.77 238.267 1495.7 234C1488.63 229.733 1483.57 223.6 1480.5 215.6C1477.43 207.6 1475.9 198.067 1475.9 187V126.8C1475.9 115.6 1477.43 106.067 1480.5 98.2C1483.57 90.3333 1488.63 84.3333 1495.7 80.2C1502.77 75.9333 1512.37 73.8 1524.5 73.8C1536.77 73.8 1546.43 75.9333 1553.5 80.2C1560.7 84.3333 1565.83 90.3333 1568.9 98.2C1571.97 106.067 1573.5 115.6 1573.5 126.8V187C1573.5 198.067 1571.97 207.6 1568.9 215.6C1565.83 223.6 1560.7 229.733 1553.5 234C1546.43 238.267 1536.77 240.4 1524.5 240.4ZM1524.5 215C1528.23 215 1530.97 214.067 1532.7 212.2C1534.43 210.333 1535.57 207.933 1536.1 205C1536.63 202.067 1536.9 199.067 1536.9 196V118C1536.9 114.8 1536.63 111.8 1536.1 109C1535.57 106.067 1534.43 103.667 1532.7 101.8C1530.97 99.9333 1528.23 99 1524.5 99C1521.03 99 1518.43 99.9333 1516.7 101.8C1514.97 103.667 1513.83 106.067 1513.3 109C1512.77 111.8 1512.5 114.8 1512.5 118V196C1512.5 199.067 1512.7 202.067 1513.1 205C1513.63 207.933 1514.7 210.333 1516.3 212.2C1518.03 214.067 1520.77 215 1524.5 215ZM1595.29 238V76H1620.49L1653.69 154V76H1683.29V238H1659.09L1625.89 154V238H1595.29ZM1750.77 238L1781.37 76H1822.17L1852.37 238H1819.37L1813.97 203.8H1790.17L1784.57 238H1750.77ZM1793.37 182.4H1810.57L1801.97 119.2L1793.37 182.4ZM1868.73 238V76H1893.93L1927.13 154V76H1956.73V238H1932.53L1899.33 154V238H1868.73ZM1980.84 238V76H2021.84C2035.97 76 2046.97 77.8 2054.84 81.4C2062.7 84.8667 2068.24 90.4 2071.44 98C2074.64 105.467 2076.24 115.2 2076.24 127.2V186C2076.24 198.133 2074.64 208.067 2071.44 215.8C2068.24 223.4 2062.7 229 2054.84 232.6C2047.1 236.2 2036.24 238 2022.24 238H1980.84ZM2016.64 213.2H2022.24C2027.7 213.2 2031.64 212.4 2034.04 210.8C2036.44 209.2 2037.9 206.8 2038.44 203.6C2039.1 200.4 2039.44 196.4 2039.44 191.6V121C2039.44 116.2 2039.04 112.333 2038.24 109.4C2037.57 106.467 2036.04 104.333 2033.64 103C2031.24 101.667 2027.37 101 2022.04 101H2016.64V213.2ZM3033.72 238V102.6H3009.32V76H3093.92V102.6H3069.72V238H3033.72ZM3153.02 240.4C3140.88 240.4 3131.28 238.267 3124.22 234C3117.15 229.733 3112.08 223.6 3109.02 215.6C3105.95 207.6 3104.42 198.067 3104.42 187V126.8C3104.42 115.6 3105.95 106.067 3109.02 98.2C3112.08 90.3333 3117.15 84.3333 3124.22 80.2C3131.28 75.9333 3140.88 73.8 3153.02 73.8C3165.28 73.8 3174.95 75.9333 3182.02 80.2C3189.22 84.3333 3194.35 90.3333 3197.42 98.2C3200.48 106.067 3202.02 115.6 3202.02 126.8V187C3202.02 198.067 3200.48 207.6 3197.42 215.6C3194.35 223.6 3189.22 229.733 3182.02 234C3174.95 238.267 3165.28 240.4 3153.02 240.4ZM3153.02 215C3156.75 215 3159.48 214.067 3161.22 212.2C3162.95 210.333 3164.08 207.933 3164.62 205C3165.15 202.067 3165.42 199.067 3165.42 196V118C3165.42 114.8 3165.15 111.8 3164.62 109C3164.08 106.067 3162.95 103.667 3161.22 101.8C3159.48 99.9333 3156.75 99 3153.02 99C3149.55 99 3146.95 99.9333 3145.22 101.8C3143.48 103.667 3142.35 106.067 3141.82 109C3141.28 111.8 3141.02 114.8 3141.02 118V196C3141.02 199.067 3141.22 202.067 3141.62 205C3142.15 207.933 3143.22 210.333 3144.82 212.2C3146.55 214.067 3149.28 215 3153.02 215ZM3270.2 240.4C3258.07 240.4 3248.47 238.267 3241.4 234C3234.34 229.733 3229.27 223.6 3226.2 215.6C3223.14 207.6 3221.6 198.067 3221.6 187V126.8C3221.6 115.6 3223.14 106.067 3226.2 98.2C3229.27 90.3333 3234.34 84.3333 3241.4 80.2C3248.47 75.9333 3258.07 73.8 3270.2 73.8C3282.47 73.8 3292.14 75.9333 3299.2 80.2C3306.4 84.3333 3311.54 90.3333 3314.6 98.2C3317.67 106.067 3319.2 115.6 3319.2 126.8V187C3319.2 198.067 3317.67 207.6 3314.6 215.6C3311.54 223.6 3306.4 229.733 3299.2 234C3292.14 238.267 3282.47 240.4 3270.2 240.4ZM3270.2 215C3273.94 215 3276.67 214.067 3278.4 212.2C3280.14 210.333 3281.27 207.933 3281.8 205C3282.34 202.067 3282.6 199.067 3282.6 196V118C3282.6 114.8 3282.34 111.8 3281.8 109C3281.27 106.067 3280.14 103.667 3278.4 101.8C3276.67 99.9333 3273.94 99 3270.2 99C3266.74 99 3264.14 99.9333 3262.4 101.8C3260.67 103.667 3259.54 106.067 3259 109C3258.47 111.8 3258.2 114.8 3258.2 118V196C3258.2 199.067 3258.4 202.067 3258.8 205C3259.34 207.933 3260.4 210.333 3262 212.2C3263.74 214.067 3266.47 215 3270.2 215ZM3348.19 196.8L3338.79 76.4H3371.19L3359.39 196.8H3348.19ZM3338.19 238V207.6H3368.99V238H3338.19Z" fill="white"/>
<path d="M499.2 238H498.2V239H499.2V238ZM499.2 76V75H498.2V76H499.2ZM535 76H536V75H535V76ZM535 238V239H536V238H535ZM500.2 238V76H498.2V238H500.2ZM499.2 77H535V75H499.2V77ZM534 76V238H536V76H534ZM535 237H499.2V239H535V237ZM576.756 235L576.288 235.884L576.288 235.884L576.756 235ZM561.356 218.4L560.446 218.815L560.449 218.821L561.356 218.4ZM555.556 189L555.408 188.011L554.527 188.143L554.557 189.033L555.556 189ZM586.156 184.4L587.156 184.381L587.134 183.242L586.008 183.411L586.156 184.4ZM587.956 201.2L586.986 201.443L586.99 201.457L586.994 201.471L587.956 201.2ZM592.756 210.4L592.074 211.131L592.086 211.142L592.098 211.153L592.756 210.4ZM607.556 209.4L606.653 208.972L606.643 208.992L606.635 209.012L607.556 209.4ZM604.556 184.6L603.731 185.166L603.739 185.177L604.556 184.6ZM591.556 170.6L590.899 171.354L590.907 171.361L591.556 170.6ZM577.556 158.4L578.213 157.646L578.203 157.637L577.556 158.4ZM561.956 140.8L561.106 141.327L561.113 141.337L561.119 141.347L561.956 140.8ZM567.956 84.8L568.619 85.5488L568.626 85.5427L567.956 84.8ZM621.956 78.2L621.465 79.071L621.474 79.0762L621.956 78.2ZM633.956 89.8L633.082 90.2856L633.09 90.3002L633.099 90.3145L633.956 89.8ZM639.556 104.8L638.571 104.972L638.574 104.987L638.577 105.001L639.556 104.8ZM641.356 119.8L641.479 120.792L642.381 120.681L642.356 119.772L641.356 119.8ZM610.556 123.6L609.557 123.628L609.587 124.727L610.679 124.592L610.556 123.6ZM609.556 111.2L608.562 111.31L608.565 111.331L608.568 111.352L609.556 111.2ZM606.756 103L605.95 103.591L605.96 103.605L605.97 103.618L606.756 103ZM592.556 104.2L591.688 103.704L591.679 103.72L591.67 103.736L592.556 104.2ZM594.556 127.4L593.746 127.987L593.758 128.002L593.77 128.018L594.556 127.4ZM605.956 139.2L605.293 139.949L605.295 139.95L605.956 139.2ZM619.356 151L618.695 151.75L618.702 151.756L618.709 151.762L619.356 151ZM637.156 171.4L636.311 171.934L636.317 171.944L637.156 171.4ZM639.356 220.4L640.227 220.892L640.231 220.884L639.356 220.4ZM624.556 235L624.066 234.128L624.058 234.133L624.556 235ZM602.156 239.4C592.136 239.4 583.842 237.62 577.224 234.116L576.288 235.884C583.271 239.58 591.91 241.4 602.156 241.4V239.4ZM577.224 234.116C570.631 230.626 565.645 225.262 562.263 217.979L560.449 218.821C564.001 226.471 569.282 232.174 576.288 235.884L577.224 234.116ZM562.266 217.985C558.873 210.545 556.953 200.888 556.556 188.967L554.557 189.033C554.959 201.112 556.907 211.055 560.446 218.815L562.266 217.985ZM555.705 189.989L586.305 185.389L586.008 183.411L555.408 188.011L555.705 189.989ZM585.156 184.419C585.29 191.39 585.894 197.073 586.986 201.443L588.926 200.957C587.885 196.793 587.289 191.277 587.156 184.381L585.156 184.419ZM586.994 201.471C588.215 205.815 589.881 209.084 592.074 211.131L593.439 209.669C591.631 207.982 590.097 205.118 588.919 200.929L586.994 201.471ZM592.098 211.153C594.42 213.185 597.19 214.2 600.356 214.2V212.2C597.656 212.2 595.359 211.349 593.415 209.647L592.098 211.153ZM600.356 214.2C602.328 214.2 604.035 213.867 605.423 213.134C606.83 212.392 607.856 211.265 608.478 209.788L606.635 209.012C606.19 210.069 605.482 210.842 604.489 211.366C603.477 211.9 602.118 212.2 600.356 212.2V214.2ZM608.46 209.828C609.723 207.161 610.356 204.348 610.356 201.4H608.356C608.356 204.052 607.789 206.572 606.653 208.972L608.46 209.828ZM610.356 201.4C610.356 194.569 608.715 188.757 605.373 184.023L603.739 185.177C606.798 189.51 608.356 194.897 608.356 201.4H610.356ZM605.381 184.034C602.12 179.279 597.722 174.549 592.206 169.839L590.907 171.361C596.324 175.985 600.592 180.588 603.732 185.166L605.381 184.034ZM592.213 169.846L578.213 157.646L576.899 159.154L590.899 171.354L592.213 169.846ZM578.203 157.637C572.141 152.498 567.006 146.703 562.794 140.253L561.119 141.347C565.44 147.963 570.705 153.902 576.91 159.163L578.203 157.637ZM562.806 140.273C558.792 133.799 556.756 125.792 556.756 116.2H554.756C554.756 126.075 556.854 134.468 561.106 141.327L562.806 140.273ZM556.756 116.2C556.756 102.672 560.754 92.511 568.619 85.5488L567.293 84.0512C558.892 91.4889 554.756 102.262 554.756 116.2H556.756ZM568.626 85.5427C576.529 78.4171 587.333 74.8 601.156 74.8V72.8C586.98 72.8 575.65 76.5162 567.287 84.0573L568.626 85.5427ZM601.156 74.8C609.724 74.8 616.468 76.2519 621.465 79.071L622.448 77.329C617.045 74.2814 609.922 72.8 601.156 72.8V74.8ZM621.474 79.0762C626.661 81.929 630.517 85.6677 633.082 90.2856L634.83 89.3143C632.063 84.3323 627.918 80.3376 622.438 77.3238L621.474 79.0762ZM633.099 90.3145C635.836 94.8765 637.659 99.7606 638.571 104.972L640.541 104.628C639.587 99.1727 637.677 94.0569 634.814 89.2855L633.099 90.3145ZM638.577 105.001C639.633 110.15 640.225 115.092 640.357 119.828L642.356 119.772C642.221 114.908 641.613 109.85 640.536 104.599L638.577 105.001ZM641.234 118.808L610.434 122.608L610.679 124.592L641.479 120.792L641.234 118.808ZM611.556 123.572C611.422 118.745 611.086 114.568 610.545 111.048L608.568 111.352C609.093 114.766 609.424 118.855 609.557 123.628L611.556 123.572ZM610.55 111.09C610.14 107.395 609.17 104.453 607.543 102.382L605.97 103.618C607.276 105.28 608.173 107.805 608.562 111.31L610.55 111.09ZM607.563 102.409C605.863 100.091 603.257 99 599.956 99V101C602.789 101 604.716 101.909 605.95 103.591L607.563 102.409ZM599.956 99C596.279 99 593.473 100.58 591.688 103.704L593.424 104.696C594.839 102.22 596.967 101 599.956 101V99ZM591.67 103.736C590.139 106.66 589.356 109.619 589.356 112.6H591.356C591.356 109.981 592.041 107.339 593.442 104.664L591.67 103.736ZM589.356 112.6C589.356 118.756 590.794 123.91 593.746 127.987L595.366 126.813C592.718 123.157 591.356 118.444 591.356 112.6H589.356ZM593.77 128.018C596.75 131.81 600.595 135.787 605.293 139.949L606.619 138.451C601.984 134.346 598.229 130.456 595.343 126.782L593.77 128.018ZM605.295 139.95L618.695 151.75L620.017 150.25L606.617 138.45L605.295 139.95ZM618.709 151.762C625.701 157.699 631.567 164.422 636.311 171.934L638.002 170.866C633.146 163.178 627.145 156.301 620.003 150.238L618.709 151.762ZM636.317 171.944C641.123 179.348 643.556 188.548 643.556 199.6H645.556C645.556 188.252 643.056 178.652 637.995 170.856L636.317 171.944ZM643.556 199.6C643.556 207.041 641.861 213.807 638.481 219.916L640.231 220.884C643.785 214.46 645.556 207.359 645.556 199.6H643.556ZM638.486 219.908C635.113 225.876 630.314 230.614 624.066 234.128L625.047 235.872C631.598 232.186 636.666 227.191 640.227 220.892L638.486 219.908ZM624.058 234.133C617.971 237.63 610.683 239.4 602.156 239.4V241.4C610.963 241.4 618.609 239.57 625.054 235.867L624.058 234.133ZM712.463 238L711.463 237.983L711.445 239H712.463V238ZM715.263 76V75H714.28L714.263 75.9827L715.263 76ZM753.663 76L754.645 75.8143L754.491 75H753.663V76ZM771.463 170.2L770.48 170.386L772.442 170.4L771.463 170.2ZM790.663 76V75H789.846L789.683 75.8003L790.663 76ZM827.663 76L828.662 75.9827L828.645 75H827.663V76ZM830.463 238V239H831.48L831.462 237.983L830.463 238ZM805.063 238L804.063 238.028L804.09 239H805.063V238ZM802.062 130.2L803.062 130.172L801.077 130.028L802.062 130.2ZM783.263 238V239H784.103L784.248 238.172L783.263 238ZM760.663 238L759.679 238.181L759.83 239H760.663V238ZM740.663 129.4L741.646 129.219L739.663 129.378L740.663 129.4ZM738.263 238V239H739.241L739.262 238.022L738.263 238ZM713.462 238.017L716.262 76.0173L714.263 75.9827L711.463 237.983L713.462 238.017ZM715.263 77H753.663V75H715.263V77ZM752.68 76.1857L770.48 170.386L772.445 170.014L754.645 75.8143L752.68 76.1857ZM772.442 170.4L791.642 76.1997L789.683 75.8003L770.483 170L772.442 170.4ZM790.663 77H827.663V75H790.663V77ZM826.663 76.0173L829.463 238.017L831.462 237.983L828.662 75.9827L826.663 76.0173ZM830.463 237H805.063V239H830.463V237ZM806.062 237.972L803.062 130.172L801.063 130.228L804.063 238.028L806.062 237.972ZM801.077 130.028L782.277 237.828L784.248 238.172L803.048 130.372L801.077 130.028ZM783.263 237H760.663V239H783.263V237ZM761.646 237.819L741.646 129.219L739.679 129.581L759.679 238.181L761.646 237.819ZM739.663 129.378L737.263 237.978L739.262 238.022L741.662 129.422L739.663 129.378ZM738.263 237H712.463V239H738.263V237ZM872.72 238H871.72V239H872.72V238ZM872.72 171.8H873.72V171.643L873.672 171.494L872.72 171.8ZM841.92 76V75H840.548L840.968 76.3061L841.92 76ZM875.72 76L876.678 75.712L876.464 75H875.72V76ZM891.12 127.2L890.163 127.488L891.173 130.847L892.086 127.46L891.12 127.2ZM904.92 76V75H904.154L903.955 75.7397L904.92 76ZM937.32 76L938.274 76.3006L938.684 75H937.32V76ZM907.12 171.8L906.167 171.499L906.12 171.646V171.8H907.12ZM907.12 238V239H908.12V238H907.12ZM873.72 238V171.8H871.72V238H873.72ZM873.672 171.494L842.872 75.6939L840.968 76.3061L871.768 172.106L873.672 171.494ZM841.92 77H875.72V75H841.92V77ZM874.763 76.288L890.163 127.488L892.078 126.912L876.678 75.712L874.763 76.288ZM892.086 127.46L905.886 76.2602L903.955 75.7397L890.155 126.94L892.086 127.46ZM904.92 77H937.32V75H904.92V77ZM936.367 75.6993L906.167 171.499L908.074 172.101L938.274 76.3006L936.367 75.6993ZM906.12 171.8V238H908.12V171.8H906.12ZM907.12 237H872.72V239H907.12V237ZM1002.13 238H1001.13V239H1002.13V238ZM1002.13 76V75H1001.13V76H1002.13ZM1080.53 81.6L1080.01 82.4591L1080.02 82.4631L1080.03 82.4671L1080.53 81.6ZM1094.53 97.6L1093.61 97.9981L1093.61 98.0045L1094.53 97.6ZM1092.92 151.8L1093.77 152.335L1093.77 152.327L1092.92 151.8ZM1076.13 165.4L1076.46 166.341L1076.46 166.341L1076.13 165.4ZM1037.93 169.2V168.2H1036.93V169.2H1037.93ZM1037.93 238V239H1038.93V238H1037.93ZM1037.93 144.2H1036.93V145.2H1037.93V144.2ZM1059.93 141.8L1059.35 140.983L1059.35 140.983L1059.93 141.8ZM1064.33 134.6L1063.35 134.357L1063.35 134.377L1063.35 134.396L1064.33 134.6ZM1064.53 111.6L1063.54 111.764L1063.54 111.789L1063.55 111.812L1064.53 111.6ZM1060.33 104L1059.69 104.772L1059.69 104.772L1060.33 104ZM1037.93 101.2V100.2H1036.93V101.2H1037.93ZM1003.13 238V76H1001.13V238H1003.13ZM1002.13 77H1056.53V75H1002.13V77ZM1056.53 77C1066.14 77 1073.94 78.8439 1080.01 82.4591L1081.04 80.7409C1074.57 76.8894 1066.38 75 1056.53 75V77ZM1080.03 82.4671C1086.09 85.9526 1090.62 91.1149 1093.61 97.9981L1095.44 97.2019C1092.3 89.9517 1087.49 84.4473 1081.02 80.7329L1080.03 82.4671ZM1093.61 98.0045C1096.61 104.777 1098.13 113.097 1098.13 123H1100.13C1100.13 112.903 1098.58 104.29 1095.44 97.1955L1093.61 98.0045ZM1098.13 123C1098.13 135.448 1096.07 144.833 1092.08 151.273L1093.77 152.327C1098.05 145.434 1100.13 135.618 1100.13 123H1098.13ZM1092.08 151.265C1088.06 157.616 1082.64 162.003 1075.79 164.459L1076.46 166.341C1083.75 163.73 1089.52 159.05 1093.77 152.335L1092.08 151.265ZM1075.79 164.459C1068.85 166.947 1061.03 168.2 1052.33 168.2V170.2C1061.22 170.2 1069.27 168.92 1076.46 166.341L1075.79 164.459ZM1052.33 168.2H1037.93V170.2H1052.33V168.2ZM1036.93 169.2V238H1038.93V169.2H1036.93ZM1037.93 237H1002.13V239H1037.93V237ZM1037.93 145.2H1049.93V143.2H1037.93V145.2ZM1049.93 145.2C1054.42 145.2 1057.99 144.387 1060.5 142.617L1059.35 140.983C1057.32 142.413 1054.23 143.2 1049.93 143.2V145.2ZM1060.5 142.617C1063.01 140.845 1064.6 138.205 1065.3 134.804L1063.35 134.396C1062.72 137.395 1061.37 139.555 1059.35 140.983L1060.5 142.617ZM1065.3 134.843C1066.12 131.535 1066.53 127.379 1066.53 122.4H1064.53C1064.53 127.288 1064.13 131.265 1063.35 134.357L1065.3 134.843ZM1066.53 122.4C1066.53 118.216 1066.19 114.542 1065.5 111.388L1063.55 111.812C1064.2 114.791 1064.53 118.317 1064.53 122.4H1066.53ZM1065.51 111.436C1064.94 108.024 1063.43 105.265 1060.96 103.228L1059.69 104.772C1061.75 106.469 1063.04 108.776 1063.54 111.764L1065.51 111.436ZM1060.96 103.228C1058.43 101.146 1054.62 100.2 1049.73 100.2V102.2C1054.43 102.2 1057.68 103.121 1059.69 104.772L1060.96 103.228ZM1049.73 100.2H1037.93V102.2H1049.73V100.2ZM1036.93 101.2V144.2H1038.93V101.2H1036.93ZM1099.21 238L1098.23 237.814L1098 239H1099.21V238ZM1129.81 76V75H1128.98L1128.83 75.8144L1129.81 76ZM1170.61 76L1171.59 75.8167L1171.44 75H1170.61V76ZM1200.81 238V239H1202.01L1201.79 237.817L1200.81 238ZM1167.81 238L1166.82 238.156L1166.95 239H1167.81V238ZM1162.41 203.8L1163.4 203.644L1163.26 202.8H1162.41V203.8ZM1138.61 203.8V202.8H1137.76L1137.62 203.638L1138.61 203.8ZM1133.01 238V239H1133.86L1133.99 238.162L1133.01 238ZM1141.81 182.4L1140.82 182.265L1140.66 183.4H1141.81V182.4ZM1159.01 182.4V183.4H1160.15L1160 182.265L1159.01 182.4ZM1150.41 119.2L1151.4 119.065L1149.42 119.065L1150.41 119.2ZM1100.19 238.186L1130.79 76.1856L1128.83 75.8144L1098.23 237.814L1100.19 238.186ZM1129.81 77H1170.61V75H1129.81V77ZM1169.62 76.1833L1199.82 238.183L1201.79 237.817L1171.59 75.8167L1169.62 76.1833ZM1200.81 237H1167.81V239H1200.81V237ZM1168.8 237.844L1163.4 203.644L1161.42 203.956L1166.82 238.156L1168.8 237.844ZM1162.41 202.8H1138.61V204.8H1162.41V202.8ZM1137.62 203.638L1132.02 237.838L1133.99 238.162L1139.59 203.962L1137.62 203.638ZM1133.01 237H1099.21V239H1133.01V237ZM1141.81 183.4H1159.01V181.4H1141.81V183.4ZM1160 182.265L1151.4 119.065L1149.42 119.335L1158.02 182.535L1160 182.265ZM1149.42 119.065L1140.82 182.265L1142.8 182.535L1151.4 119.335L1149.42 119.065ZM1233.2 235L1232.73 235.884L1232.73 235.884L1233.2 235ZM1217.8 218.4L1216.89 218.815L1216.89 218.821L1217.8 218.4ZM1212 189L1211.85 188.011L1210.97 188.143L1211 189.033L1212 189ZM1242.6 184.4L1243.6 184.381L1243.58 183.242L1242.45 183.411L1242.6 184.4ZM1244.4 201.2L1243.43 201.443L1243.43 201.457L1243.44 201.471L1244.4 201.2ZM1249.2 210.4L1248.52 211.131L1248.53 211.142L1248.54 211.153L1249.2 210.4ZM1264 209.4L1263.1 208.972L1263.09 208.992L1263.08 209.012L1264 209.4ZM1261 184.6L1260.18 185.166L1260.18 185.177L1261 184.6ZM1248 170.6L1247.34 171.354L1247.35 171.361L1248 170.6ZM1234 158.4L1234.66 157.646L1234.65 157.637L1234 158.4ZM1218.4 140.8L1217.55 141.327L1217.56 141.337L1217.56 141.347L1218.4 140.8ZM1224.4 84.8L1225.06 85.5488L1225.07 85.5427L1224.4 84.8ZM1278.4 78.2L1277.91 79.071L1277.92 79.0762L1278.4 78.2ZM1290.4 89.8L1289.53 90.2856L1289.54 90.3002L1289.54 90.3145L1290.4 89.8ZM1296 104.8L1295.02 104.972L1295.02 104.987L1295.02 105.001L1296 104.8ZM1297.8 119.8L1297.92 120.792L1298.83 120.681L1298.8 119.772L1297.8 119.8ZM1267 123.6L1266 123.628L1266.03 124.727L1267.12 124.592L1267 123.6ZM1266 111.2L1265.01 111.31L1265.01 111.331L1265.01 111.352L1266 111.2ZM1263.2 103L1262.4 103.591L1262.4 103.605L1262.42 103.618L1263.2 103ZM1249 104.2L1248.13 103.704L1248.12 103.72L1248.12 103.736L1249 104.2ZM1251 127.4L1250.19 127.987L1250.2 128.002L1250.22 128.018L1251 127.4ZM1262.4 139.2L1261.74 139.949L1261.74 139.95L1262.4 139.2ZM1275.8 151L1275.14 151.75L1275.15 151.756L1275.15 151.762L1275.8 151ZM1293.6 171.4L1292.76 171.934L1292.76 171.944L1293.6 171.4ZM1295.8 220.4L1296.67 220.892L1296.68 220.884L1295.8 220.4ZM1281 235L1280.51 234.128L1280.5 234.133L1281 235ZM1258.6 239.4C1248.58 239.4 1240.29 237.62 1233.67 234.116L1232.73 235.884C1239.72 239.58 1248.35 241.4 1258.6 241.4V239.4ZM1233.67 234.116C1227.08 230.626 1222.09 225.262 1218.71 217.979L1216.89 218.821C1220.45 226.471 1225.73 232.174 1232.73 235.884L1233.67 234.116ZM1218.71 217.985C1215.32 210.545 1213.4 200.888 1213 188.967L1211 189.033C1211.4 201.112 1213.35 211.055 1216.89 218.815L1218.71 217.985ZM1212.15 189.989L1242.75 185.389L1242.45 183.411L1211.85 188.011L1212.15 189.989ZM1241.6 184.419C1241.74 191.39 1242.34 197.073 1243.43 201.443L1245.37 200.957C1244.33 196.793 1243.73 191.277 1243.6 184.381L1241.6 184.419ZM1243.44 201.471C1244.66 205.815 1246.33 209.084 1248.52 211.131L1249.88 209.669C1248.08 207.982 1246.54 205.118 1245.36 200.929L1243.44 201.471ZM1248.54 211.153C1250.87 213.185 1253.64 214.2 1256.8 214.2V212.2C1254.1 212.2 1251.8 211.349 1249.86 209.647L1248.54 211.153ZM1256.8 214.2C1258.77 214.2 1260.48 213.867 1261.87 213.134C1263.28 212.392 1264.3 211.265 1264.92 209.788L1263.08 209.012C1262.64 210.069 1261.93 210.842 1260.93 211.366C1259.92 211.9 1258.56 212.2 1256.8 212.2V214.2ZM1264.91 209.828C1266.17 207.161 1266.8 204.348 1266.8 201.4H1264.8C1264.8 204.052 1264.23 206.572 1263.1 208.972L1264.91 209.828ZM1266.8 201.4C1266.8 194.569 1265.16 188.757 1261.82 184.023L1260.18 185.177C1263.24 189.51 1264.8 194.897 1264.8 201.4H1266.8ZM1261.83 184.034C1258.57 179.279 1254.17 174.549 1248.65 169.839L1247.35 171.361C1252.77 175.985 1257.04 180.588 1260.18 185.166L1261.83 184.034ZM1248.66 169.846L1234.66 157.646L1233.34 159.154L1247.34 171.354L1248.66 169.846ZM1234.65 157.637C1228.59 152.498 1223.45 146.703 1219.24 140.253L1217.56 141.347C1221.89 147.963 1227.15 153.902 1233.35 159.163L1234.65 157.637ZM1219.25 140.273C1215.24 133.799 1213.2 125.792 1213.2 116.2H1211.2C1211.2 126.075 1213.3 134.468 1217.55 141.327L1219.25 140.273ZM1213.2 116.2C1213.2 102.672 1217.2 92.511 1225.06 85.5488L1223.74 84.0512C1215.34 91.4889 1211.2 102.262 1211.2 116.2H1213.2ZM1225.07 85.5427C1232.97 78.4171 1243.78 74.8 1257.6 74.8V72.8C1243.43 72.8 1232.1 76.5162 1223.73 84.0573L1225.07 85.5427ZM1257.6 74.8C1266.17 74.8 1272.91 76.2519 1277.91 79.071L1278.89 77.329C1273.49 74.2814 1266.37 72.8 1257.6 72.8V74.8ZM1277.92 79.0762C1283.11 81.929 1286.96 85.6677 1289.53 90.2856L1291.28 89.3143C1288.51 84.3323 1284.36 80.3376 1278.88 77.3238L1277.92 79.0762ZM1289.54 90.3145C1292.28 94.8765 1294.1 99.7606 1295.02 104.972L1296.99 104.628C1296.03 99.1727 1294.12 94.0569 1291.26 89.2855L1289.54 90.3145ZM1295.02 105.001C1296.08 110.15 1296.67 115.092 1296.8 119.828L1298.8 119.772C1298.67 114.908 1298.06 109.85 1296.98 104.599L1295.02 105.001ZM1297.68 118.808L1266.88 122.608L1267.12 124.592L1297.92 120.792L1297.68 118.808ZM1268 123.572C1267.87 118.745 1267.53 114.568 1266.99 111.048L1265.01 111.352C1265.54 114.766 1265.87 118.855 1266 123.628L1268 123.572ZM1267 111.09C1266.58 107.395 1265.62 104.453 1263.99 102.382L1262.42 103.618C1263.72 105.28 1264.62 107.805 1265.01 111.31L1267 111.09ZM1264.01 102.409C1262.31 100.091 1259.7 99 1256.4 99V101C1259.23 101 1261.16 101.909 1262.4 103.591L1264.01 102.409ZM1256.4 99C1252.72 99 1249.92 100.58 1248.13 103.704L1249.87 104.696C1251.28 102.22 1253.41 101 1256.4 101V99ZM1248.12 103.736C1246.58 106.66 1245.8 109.619 1245.8 112.6H1247.8C1247.8 109.981 1248.49 107.339 1249.89 104.664L1248.12 103.736ZM1245.8 112.6C1245.8 118.756 1247.24 123.91 1250.19 127.987L1251.81 126.813C1249.16 123.157 1247.8 118.444 1247.8 112.6H1245.8ZM1250.22 128.018C1253.2 131.81 1257.04 135.787 1261.74 139.949L1263.06 138.451C1258.43 134.346 1254.67 130.456 1251.79 126.782L1250.22 128.018ZM1261.74 139.95L1275.14 151.75L1276.46 150.25L1263.06 138.45L1261.74 139.95ZM1275.15 151.762C1282.15 157.699 1288.01 164.422 1292.76 171.934L1294.45 170.866C1289.59 163.178 1283.59 156.301 1276.45 150.238L1275.15 151.762ZM1292.76 171.944C1297.57 179.348 1300 188.548 1300 199.6H1302C1302 188.252 1299.5 178.652 1294.44 170.856L1292.76 171.944ZM1300 199.6C1300 207.041 1298.31 213.807 1294.93 219.916L1296.68 220.884C1300.23 214.46 1302 207.359 1302 199.6H1300ZM1294.93 219.908C1291.56 225.876 1286.76 230.614 1280.51 234.128L1281.49 235.872C1288.04 232.186 1293.11 227.191 1296.67 220.892L1294.93 219.908ZM1280.5 234.133C1274.42 237.63 1267.13 239.4 1258.6 239.4V241.4C1267.41 241.4 1275.05 239.57 1281.5 235.867L1280.5 234.133ZM1332.81 235L1332.34 235.884L1332.34 235.884L1332.81 235ZM1317.41 218.4L1316.5 218.815L1316.5 218.821L1317.41 218.4ZM1311.61 189L1311.46 188.011L1310.58 188.143L1310.61 189.033L1311.61 189ZM1342.21 184.4L1343.21 184.381L1343.19 183.242L1342.06 183.411L1342.21 184.4ZM1344.01 201.2L1343.04 201.443L1343.04 201.457L1343.05 201.471L1344.01 201.2ZM1348.81 210.4L1348.13 211.131L1348.14 211.142L1348.15 211.153L1348.81 210.4ZM1363.61 209.4L1362.71 208.972L1362.7 208.992L1362.69 209.012L1363.61 209.4ZM1360.61 184.6L1359.79 185.166L1359.79 185.177L1360.61 184.6ZM1347.61 170.6L1346.95 171.354L1346.96 171.361L1347.61 170.6ZM1333.61 158.4L1334.27 157.646L1334.26 157.637L1333.61 158.4ZM1318.01 140.8L1317.16 141.327L1317.17 141.337L1317.17 141.347L1318.01 140.8ZM1324.01 84.8L1324.67 85.5488L1324.68 85.5427L1324.01 84.8ZM1378.01 78.2L1377.52 79.071L1377.53 79.0762L1378.01 78.2ZM1390.01 89.8L1389.14 90.2856L1389.14 90.3002L1389.15 90.3145L1390.01 89.8ZM1395.61 104.8L1394.63 104.972L1394.63 104.987L1394.63 105.001L1395.61 104.8ZM1397.41 119.8L1397.53 120.792L1398.44 120.681L1398.41 119.772L1397.41 119.8ZM1366.61 123.6L1365.61 123.628L1365.64 124.727L1366.73 124.592L1366.61 123.6ZM1365.61 111.2L1364.62 111.31L1364.62 111.331L1364.62 111.352L1365.61 111.2ZM1362.81 103L1362 103.591L1362.01 103.605L1362.02 103.618L1362.81 103ZM1348.61 104.2L1347.74 103.704L1347.73 103.72L1347.73 103.736L1348.61 104.2ZM1350.61 127.4L1349.8 127.987L1349.81 128.002L1349.82 128.018L1350.61 127.4ZM1362.01 139.2L1361.35 139.949L1361.35 139.95L1362.01 139.2ZM1375.41 151L1374.75 151.75L1374.76 151.756L1374.76 151.762L1375.41 151ZM1393.21 171.4L1392.37 171.934L1392.37 171.944L1393.21 171.4ZM1395.41 220.4L1396.28 220.892L1396.29 220.884L1395.41 220.4ZM1380.61 235L1380.12 234.128L1380.11 234.133L1380.61 235ZM1358.21 239.4C1348.19 239.4 1339.9 237.62 1333.28 234.116L1332.34 235.884C1339.33 239.58 1347.96 241.4 1358.21 241.4V239.4ZM1333.28 234.116C1326.69 230.626 1321.7 225.262 1318.32 217.979L1316.5 218.821C1320.06 226.471 1325.34 232.174 1332.34 235.884L1333.28 234.116ZM1318.32 217.985C1314.93 210.545 1313.01 200.888 1312.61 188.967L1310.61 189.033C1311.01 201.112 1312.96 211.055 1316.5 218.815L1318.32 217.985ZM1311.76 189.989L1342.36 185.389L1342.06 183.411L1311.46 188.011L1311.76 189.989ZM1341.21 184.419C1341.35 191.39 1341.95 197.073 1343.04 201.443L1344.98 200.957C1343.94 196.793 1343.34 191.277 1343.21 184.381L1341.21 184.419ZM1343.05 201.471C1344.27 205.815 1345.94 209.084 1348.13 211.131L1349.49 209.669C1347.69 207.982 1346.15 205.118 1344.97 200.929L1343.05 201.471ZM1348.15 211.153C1350.47 213.185 1353.24 214.2 1356.41 214.2V212.2C1353.71 212.2 1351.41 211.349 1349.47 209.647L1348.15 211.153ZM1356.41 214.2C1358.38 214.2 1360.09 213.867 1361.48 213.134C1362.88 212.392 1363.91 211.265 1364.53 209.788L1362.69 209.012C1362.24 210.069 1361.54 210.842 1360.54 211.366C1359.53 211.9 1358.17 212.2 1356.41 212.2V214.2ZM1364.51 209.828C1365.78 207.161 1366.41 204.348 1366.41 201.4H1364.41C1364.41 204.052 1363.84 206.572 1362.71 208.972L1364.51 209.828ZM1366.41 201.4C1366.41 194.569 1364.77 188.757 1361.43 184.023L1359.79 185.177C1362.85 189.51 1364.41 194.897 1364.41 201.4H1366.41ZM1361.44 184.034C1358.17 179.279 1353.78 174.549 1348.26 169.839L1346.96 171.361C1352.38 175.985 1356.65 180.588 1359.79 185.166L1361.44 184.034ZM1348.27 169.846L1334.27 157.646L1332.95 159.154L1346.95 171.354L1348.27 169.846ZM1334.26 157.637C1328.2 152.498 1323.06 146.703 1318.85 140.253L1317.17 141.347C1321.49 147.963 1326.76 153.902 1332.96 159.163L1334.26 157.637ZM1318.86 140.273C1314.85 133.799 1312.81 125.792 1312.81 116.2H1310.81C1310.81 126.075 1312.91 134.468 1317.16 141.327L1318.86 140.273ZM1312.81 116.2C1312.81 102.672 1316.81 92.511 1324.67 85.5488L1323.35 84.0512C1314.95 91.4889 1310.81 102.262 1310.81 116.2H1312.81ZM1324.68 85.5427C1332.58 78.4171 1343.39 74.8 1357.21 74.8V72.8C1343.03 72.8 1331.71 76.5162 1323.34 84.0573L1324.68 85.5427ZM1357.21 74.8C1365.78 74.8 1372.52 76.2519 1377.52 79.071L1378.5 77.329C1373.1 74.2814 1365.98 72.8 1357.21 72.8V74.8ZM1377.53 79.0762C1382.72 81.929 1386.57 85.6677 1389.14 90.2856L1390.89 89.3143C1388.12 84.3323 1383.97 80.3376 1378.49 77.3238L1377.53 79.0762ZM1389.15 90.3145C1391.89 94.8765 1393.71 99.7606 1394.63 104.972L1396.6 104.628C1395.64 99.1727 1393.73 94.0569 1390.87 89.2855L1389.15 90.3145ZM1394.63 105.001C1395.69 110.15 1396.28 115.092 1396.41 119.828L1398.41 119.772C1398.28 114.908 1397.67 109.85 1396.59 104.599L1394.63 105.001ZM1397.29 118.808L1366.49 122.608L1366.73 124.592L1397.53 120.792L1397.29 118.808ZM1367.61 123.572C1367.48 118.745 1367.14 114.568 1366.6 111.048L1364.62 111.352C1365.15 114.766 1365.48 118.855 1365.61 123.628L1367.61 123.572ZM1366.6 111.09C1366.19 107.395 1365.22 104.453 1363.6 102.382L1362.02 103.618C1363.33 105.28 1364.23 107.805 1364.62 111.31L1366.6 111.09ZM1363.62 102.409C1361.92 100.091 1359.31 99 1356.01 99V101C1358.84 101 1360.77 101.909 1362 103.591L1363.62 102.409ZM1356.01 99C1352.33 99 1349.53 100.58 1347.74 103.704L1349.48 104.696C1350.89 102.22 1353.02 101 1356.01 101V99ZM1347.73 103.736C1346.19 106.66 1345.41 109.619 1345.41 112.6H1347.41C1347.41 109.981 1348.1 107.339 1349.5 104.664L1347.73 103.736ZM1345.41 112.6C1345.41 118.756 1346.85 123.91 1349.8 127.987L1351.42 126.813C1348.77 123.157 1347.41 118.444 1347.41 112.6H1345.41ZM1349.82 128.018C1352.8 131.81 1356.65 135.787 1361.35 139.949L1362.67 138.451C1358.04 134.346 1354.28 130.456 1351.4 126.782L1349.82 128.018ZM1361.35 139.95L1374.75 151.75L1376.07 150.25L1362.67 138.45L1361.35 139.95ZM1374.76 151.762C1381.76 157.699 1387.62 164.422 1392.37 171.934L1394.06 170.866C1389.2 163.178 1383.2 156.301 1376.06 150.238L1374.76 151.762ZM1392.37 171.944C1397.18 179.348 1399.61 188.548 1399.61 199.6H1401.61C1401.61 188.252 1399.11 178.652 1394.05 170.856L1392.37 171.944ZM1399.61 199.6C1399.61 207.041 1397.92 213.807 1394.54 219.916L1396.29 220.884C1399.84 214.46 1401.61 207.359 1401.61 199.6H1399.61ZM1394.54 219.908C1391.17 225.876 1386.37 230.614 1380.12 234.128L1381.1 235.872C1387.65 232.186 1392.72 227.191 1396.28 220.892L1394.54 219.908ZM1380.11 234.133C1374.03 237.63 1366.74 239.4 1358.21 239.4V241.4C1367.02 241.4 1374.66 239.57 1381.11 235.867L1380.11 234.133ZM1418.15 238H1417.15V239H1418.15V238ZM1418.15 76V75H1417.15V76H1418.15ZM1453.95 76H1454.95V75H1453.95V76ZM1453.95 238V239H1454.95V238H1453.95ZM1419.15 238V76H1417.15V238H1419.15ZM1418.15 77H1453.95V75H1418.15V77ZM1452.95 76V238H1454.95V76H1452.95ZM1453.95 237H1418.15V239H1453.95V237ZM1495.7 234L1495.18 234.856L1495.18 234.856L1495.7 234ZM1480.5 215.6L1479.57 215.958L1480.5 215.6ZM1480.5 98.2L1479.57 97.8368L1479.57 97.8368L1480.5 98.2ZM1495.7 80.2L1496.21 81.0633L1496.22 81.0561L1495.7 80.2ZM1553.5 80.2L1552.98 81.0561L1552.99 81.0618L1553 81.0672L1553.5 80.2ZM1568.9 98.2L1567.97 98.5632L1567.97 98.5632L1568.9 98.2ZM1568.9 215.6L1567.97 215.242L1567.97 215.242L1568.9 215.6ZM1553.5 234L1552.99 233.14L1552.98 233.144L1553.5 234ZM1532.7 212.2L1531.97 211.52L1531.97 211.52L1532.7 212.2ZM1536.1 205L1537.09 205.179L1537.09 205.179L1536.1 205ZM1536.1 109L1535.12 109.179L1535.12 109.187L1536.1 109ZM1532.7 101.8L1531.97 102.48L1531.97 102.48L1532.7 101.8ZM1516.7 101.8L1517.43 102.48L1517.43 102.48L1516.7 101.8ZM1513.3 109L1514.28 109.187L1514.29 109.179L1513.3 109ZM1513.1 205L1512.11 205.135L1512.11 205.157L1512.12 205.179L1513.1 205ZM1516.3 212.2L1515.54 212.851L1515.56 212.866L1515.57 212.88L1516.3 212.2ZM1524.5 239.4C1512.47 239.4 1503.07 237.282 1496.22 233.144L1495.18 234.856C1502.46 239.251 1512.27 241.4 1524.5 241.4V239.4ZM1496.22 233.144C1489.35 228.997 1484.43 223.043 1481.44 215.242L1479.57 215.958C1482.71 224.157 1487.92 230.47 1495.18 234.856L1496.22 233.144ZM1481.44 215.242C1478.42 207.384 1476.9 197.978 1476.9 187H1474.9C1474.9 198.155 1476.45 207.816 1479.57 215.958L1481.44 215.242ZM1476.9 187V126.8H1474.9V187H1476.9ZM1476.9 126.8C1476.9 115.686 1478.42 106.283 1481.43 98.5632L1479.57 97.8368C1476.45 105.85 1474.9 115.514 1474.9 126.8H1476.9ZM1481.43 98.5632C1484.42 90.8994 1489.34 85.0789 1496.21 81.0632L1495.2 79.3368C1487.93 83.5877 1482.72 89.7672 1479.57 97.8368L1481.43 98.5632ZM1496.22 81.0561C1503.07 76.9178 1512.47 74.8 1524.5 74.8V72.8C1512.27 72.8 1502.46 74.9488 1495.18 79.3439L1496.22 81.0561ZM1524.5 74.8C1536.67 74.8 1546.13 76.9186 1552.98 81.0561L1554.02 79.3439C1546.74 74.948 1536.87 72.8 1524.5 72.8V74.8ZM1553 81.0672C1560 85.0849 1564.98 90.9052 1567.97 98.5632L1569.83 97.8368C1566.69 89.7615 1561.4 83.5818 1554 79.3327L1553 81.0672ZM1567.97 98.5632C1570.98 106.283 1572.5 115.686 1572.5 126.8H1574.5C1574.5 115.514 1572.96 105.85 1569.83 97.8368L1567.97 98.5632ZM1572.5 126.8V187H1574.5V126.8H1572.5ZM1572.5 187C1572.5 197.978 1570.98 207.384 1567.97 215.242L1569.84 215.958C1572.96 207.816 1574.5 198.155 1574.5 187H1572.5ZM1567.97 215.242C1564.98 223.037 1559.99 228.991 1552.99 233.14L1554.01 234.86C1561.41 230.476 1566.69 224.163 1569.84 215.958L1567.97 215.242ZM1552.98 233.144C1546.13 237.281 1536.67 239.4 1524.5 239.4V241.4C1536.87 241.4 1546.74 239.252 1554.02 234.856L1552.98 233.144ZM1524.5 216C1528.38 216 1531.44 215.03 1533.43 212.88L1531.97 211.52C1530.5 213.103 1528.09 214 1524.5 214V216ZM1533.43 212.88C1535.32 210.852 1536.52 208.267 1537.09 205.179L1535.12 204.821C1534.61 207.599 1533.55 209.815 1531.97 211.52L1533.43 212.88ZM1537.09 205.179C1537.63 202.185 1537.9 199.125 1537.9 196H1535.9C1535.9 199.008 1535.64 201.948 1535.12 204.821L1537.09 205.179ZM1537.9 196V118H1535.9V196H1537.9ZM1537.9 118C1537.9 114.745 1537.63 111.682 1537.08 108.813L1535.12 109.187C1535.64 111.918 1535.9 114.855 1535.9 118H1537.9ZM1537.09 108.821C1536.52 105.733 1535.32 103.148 1533.43 101.12L1531.97 102.48C1533.55 104.185 1534.61 106.401 1535.12 109.179L1537.09 108.821ZM1533.43 101.12C1531.44 98.9699 1528.38 98 1524.5 98V100C1528.09 100 1530.5 100.897 1531.97 102.48L1533.43 101.12ZM1524.5 98C1520.86 98 1517.95 98.9836 1515.97 101.12L1517.43 102.48C1518.92 100.883 1521.21 100 1524.5 100V98ZM1515.97 101.12C1514.08 103.148 1512.88 105.733 1512.32 108.821L1514.29 109.179C1514.79 106.401 1515.85 104.185 1517.43 102.48L1515.97 101.12ZM1512.32 108.813C1511.77 111.682 1511.5 114.745 1511.5 118H1513.5C1513.5 114.855 1513.76 111.918 1514.28 109.187L1512.32 108.813ZM1511.5 118V196H1513.5V118H1511.5ZM1511.5 196C1511.5 199.11 1511.7 202.155 1512.11 205.135L1514.09 204.865C1513.7 201.978 1513.5 199.023 1513.5 196H1511.5ZM1512.12 205.179C1512.68 208.25 1513.8 210.824 1515.54 212.851L1517.06 211.549C1515.6 209.843 1514.59 207.617 1514.09 204.821L1512.12 205.179ZM1515.57 212.88C1517.56 215.03 1520.62 216 1524.5 216V214C1520.92 214 1518.5 213.103 1517.03 211.52L1515.57 212.88ZM1595.29 238H1594.29V239H1595.29V238ZM1595.29 76V75H1594.29V76H1595.29ZM1620.49 76L1621.41 75.6083L1621.15 75H1620.49V76ZM1653.69 154L1652.77 154.392L1654.69 154H1653.69ZM1653.69 76V75H1652.69V76H1653.69ZM1683.29 76H1684.29V75H1683.29V76ZM1683.29 238V239H1684.29V238H1683.29ZM1659.09 238L1658.16 238.368L1658.41 239H1659.09V238ZM1625.89 154L1626.82 153.632L1624.89 154H1625.89ZM1625.89 238V239H1626.89V238H1625.89ZM1596.29 238V76H1594.29V238H1596.29ZM1595.29 77H1620.49V75H1595.29V77ZM1619.57 76.3916L1652.77 154.392L1654.61 153.608L1621.41 75.6083L1619.57 76.3916ZM1654.69 154V76H1652.69V154H1654.69ZM1653.69 77H1683.29V75H1653.69V77ZM1682.29 76V238H1684.29V76H1682.29ZM1683.29 237H1659.09V239H1683.29V237ZM1660.02 237.632L1626.82 153.632L1624.96 154.368L1658.16 238.368L1660.02 237.632ZM1624.89 154V238H1626.89V154H1624.89ZM1625.89 237H1595.29V239H1625.89V237ZM1750.77 238L1749.79 237.814L1749.56 239H1750.77V238ZM1781.37 76V75H1780.54L1780.39 75.8144L1781.37 76ZM1822.17 76L1823.15 75.8167L1823 75H1822.17V76ZM1852.37 238V239H1853.57L1853.35 237.817L1852.37 238ZM1819.37 238L1818.38 238.156L1818.52 239H1819.37V238ZM1813.97 203.8L1814.96 203.644L1814.82 202.8H1813.97V203.8ZM1790.17 203.8V202.8H1789.32L1789.18 203.638L1790.17 203.8ZM1784.57 238V239H1785.42L1785.56 238.162L1784.57 238ZM1793.37 182.4L1792.38 182.265L1792.23 183.4H1793.37V182.4ZM1810.57 182.4V183.4H1811.72L1811.56 182.265L1810.57 182.4ZM1801.97 119.2L1802.96 119.065L1800.98 119.065L1801.97 119.2ZM1751.75 238.186L1782.35 76.1856L1780.39 75.8144L1749.79 237.814L1751.75 238.186ZM1781.37 77H1822.17V75H1781.37V77ZM1821.19 76.1833L1851.39 238.183L1853.35 237.817L1823.15 75.8167L1821.19 76.1833ZM1852.37 237H1819.37V239H1852.37V237ZM1820.36 237.844L1814.96 203.644L1812.98 203.956L1818.38 238.156L1820.36 237.844ZM1813.97 202.8H1790.17V204.8H1813.97V202.8ZM1789.18 203.638L1783.58 237.838L1785.56 238.162L1791.16 203.962L1789.18 203.638ZM1784.57 237H1750.77V239H1784.57V237ZM1793.37 183.4H1810.57V181.4H1793.37V183.4ZM1811.56 182.265L1802.96 119.065L1800.98 119.335L1809.58 182.535L1811.56 182.265ZM1800.98 119.065L1792.38 182.265L1794.36 182.535L1802.96 119.335L1800.98 119.065ZM1868.73 238H1867.73V239H1868.73V238ZM1868.73 76V75H1867.73V76H1868.73ZM1893.93 76L1894.85 75.6083L1894.59 75H1893.93V76ZM1927.13 154L1926.21 154.392L1928.13 154H1927.13ZM1927.13 76V75H1926.13V76H1927.13ZM1956.73 76H1957.73V75H1956.73V76ZM1956.73 238V239H1957.73V238H1956.73ZM1932.53 238L1931.6 238.368L1931.85 239H1932.53V238ZM1899.33 154L1900.26 153.632L1898.33 154H1899.33ZM1899.33 238V239H1900.33V238H1899.33ZM1869.73 238V76H1867.73V238H1869.73ZM1868.73 77H1893.93V75H1868.73V77ZM1893.01 76.3916L1926.21 154.392L1928.05 153.608L1894.85 75.6083L1893.01 76.3916ZM1928.13 154V76H1926.13V154H1928.13ZM1927.13 77H1956.73V75H1927.13V77ZM1955.73 76V238H1957.73V76H1955.73ZM1956.73 237H1932.53V239H1956.73V237ZM1933.46 237.632L1900.26 153.632L1898.4 154.368L1931.6 238.368L1933.46 237.632ZM1898.33 154V238H1900.33V154H1898.33ZM1899.33 237H1868.73V239H1899.33V237ZM1980.84 238H1979.84V239H1980.84V238ZM1980.84 76V75H1979.84V76H1980.84ZM2054.84 81.4L2054.42 82.3094L2054.43 82.3151L2054.84 81.4ZM2071.44 98L2070.51 98.3881L2070.52 98.3939L2071.44 98ZM2071.44 215.8L2072.36 216.188L2072.36 216.182L2071.44 215.8ZM2054.84 232.6L2054.42 231.691L2054.41 231.693L2054.84 232.6ZM2016.64 213.2H2015.64V214.2H2016.64V213.2ZM2034.04 210.8L2033.48 209.968L2033.48 209.968L2034.04 210.8ZM2038.44 203.6L2037.46 203.396L2037.45 203.416L2037.45 203.436L2038.44 203.6ZM2038.24 109.4L2037.26 109.622L2037.27 109.642L2037.27 109.663L2038.24 109.4ZM2033.64 103L2033.15 103.874L2033.15 103.874L2033.64 103ZM2016.64 101V100H2015.64V101H2016.64ZM1981.84 238V76H1979.84V238H1981.84ZM1980.84 77H2021.84V75H1980.84V77ZM2021.84 77C2035.91 77 2046.74 78.7952 2054.42 82.3093L2055.25 80.4907C2047.2 76.8048 2036.03 75 2021.84 75V77ZM2054.43 82.3151C2062.08 85.6836 2067.42 91.0343 2070.51 98.388L2072.36 97.6119C2069.05 89.7657 2063.33 84.0498 2055.24 80.4849L2054.43 82.3151ZM2070.52 98.3939C2073.64 105.691 2075.24 115.276 2075.24 127.2H2077.24C2077.24 115.124 2075.63 105.242 2072.36 97.6061L2070.52 98.3939ZM2075.24 127.2V186H2077.24V127.2H2075.24ZM2075.24 186C2075.24 198.056 2073.64 207.847 2070.51 215.418L2072.36 216.182C2075.63 208.286 2077.24 198.21 2077.24 186H2075.24ZM2070.51 215.412C2067.42 222.769 2062.07 228.189 2054.42 231.691L2055.25 233.509C2063.33 229.811 2069.06 224.031 2072.36 216.188L2070.51 215.412ZM2054.41 231.693C2046.87 235.205 2036.17 237 2022.24 237V239C2036.3 239 2047.33 237.195 2055.26 233.507L2054.41 231.693ZM2022.24 237H1980.84V239H2022.24V237ZM2016.64 214.2H2022.24V212.2H2016.64V214.2ZM2022.24 214.2C2027.75 214.2 2031.93 213.402 2034.59 211.632L2033.48 209.968C2031.34 211.398 2027.66 212.2 2022.24 212.2V214.2ZM2034.59 211.632C2037.25 209.859 2038.85 207.2 2039.42 203.764L2037.45 203.436C2036.96 206.4 2035.62 208.541 2033.48 209.968L2034.59 211.632ZM2039.41 203.804C2040.1 200.514 2040.44 196.44 2040.44 191.6H2038.44C2038.44 196.36 2038.1 200.286 2037.46 203.396L2039.41 203.804ZM2040.44 191.6V121H2038.44V191.6H2040.44ZM2040.44 121C2040.44 116.156 2040.03 112.191 2039.2 109.137L2037.27 109.663C2038.04 112.476 2038.44 116.244 2038.44 121H2040.44ZM2039.21 109.178C2038.49 105.998 2036.8 103.611 2034.12 102.126L2033.15 103.874C2035.28 105.055 2036.65 106.936 2037.26 109.622L2039.21 109.178ZM2034.12 102.126C2031.49 100.663 2027.41 100 2022.04 100V102C2027.33 102 2030.98 102.67 2033.15 103.874L2034.12 102.126ZM2022.04 100H2016.64V102H2022.04V100ZM2015.64 101V213.2H2017.64V101H2015.64ZM3033.72 238H3032.72V239H3033.72V238ZM3033.72 102.6H3034.72V101.6H3033.72V102.6ZM3009.32 102.6H3008.32V103.6H3009.32V102.6ZM3009.32 76V75H3008.32V76H3009.32ZM3093.92 76H3094.92V75H3093.92V76ZM3093.92 102.6V103.6H3094.92V102.6H3093.92ZM3069.72 102.6V101.6H3068.72V102.6H3069.72ZM3069.72 238V239H3070.72V238H3069.72ZM3034.72 238V102.6H3032.72V238H3034.72ZM3033.72 101.6H3009.32V103.6H3033.72V101.6ZM3010.32 102.6V76H3008.32V102.6H3010.32ZM3009.32 77H3093.92V75H3009.32V77ZM3092.92 76V102.6H3094.92V76H3092.92ZM3093.92 101.6H3069.72V103.6H3093.92V101.6ZM3068.72 102.6V238H3070.72V102.6H3068.72ZM3069.72 237H3033.72V239H3069.72V237ZM3124.22 234L3123.7 234.856L3123.7 234.856L3124.22 234ZM3109.02 215.6L3108.08 215.958L3109.02 215.6ZM3109.02 98.2L3108.09 97.8368L3108.09 97.8368L3109.02 98.2ZM3124.22 80.2L3124.72 81.0633L3124.73 81.0561L3124.22 80.2ZM3182.02 80.2L3181.5 81.0561L3181.51 81.0618L3181.52 81.0672L3182.02 80.2ZM3197.42 98.2L3196.49 98.5632L3196.49 98.5632L3197.42 98.2ZM3197.42 215.6L3196.48 215.242L3196.48 215.242L3197.42 215.6ZM3182.02 234L3181.51 233.14L3181.5 233.144L3182.02 234ZM3161.22 212.2L3160.48 211.52L3160.48 211.52L3161.22 212.2ZM3164.62 205L3165.6 205.179L3165.6 205.179L3164.62 205ZM3164.62 109L3163.63 109.179L3163.63 109.187L3164.62 109ZM3161.22 101.8L3160.48 102.48L3160.48 102.48L3161.22 101.8ZM3145.22 101.8L3145.95 102.48L3145.95 102.48L3145.22 101.8ZM3141.82 109L3142.8 109.187L3142.8 109.179L3141.82 109ZM3141.62 205L3140.63 205.135L3140.63 205.157L3140.63 205.179L3141.62 205ZM3144.82 212.2L3144.06 212.851L3144.07 212.866L3144.08 212.88L3144.82 212.2ZM3153.02 239.4C3140.99 239.4 3131.59 237.282 3124.73 233.144L3123.7 234.856C3130.98 239.251 3140.78 241.4 3153.02 241.4V239.4ZM3124.73 233.144C3117.87 228.997 3112.94 223.043 3109.95 215.242L3108.08 215.958C3111.23 224.157 3116.44 230.47 3123.7 234.856L3124.73 233.144ZM3109.95 215.242C3106.94 207.384 3105.42 197.978 3105.42 187H3103.42C3103.42 198.155 3104.96 207.816 3108.08 215.958L3109.95 215.242ZM3105.42 187V126.8H3103.42V187H3105.42ZM3105.42 126.8C3105.42 115.686 3106.94 106.283 3109.95 98.5632L3108.09 97.8368C3104.96 105.85 3103.42 115.514 3103.42 126.8H3105.42ZM3109.95 98.5632C3112.94 90.8994 3117.86 85.0789 3124.72 81.0632L3123.71 79.3368C3116.44 83.5877 3111.23 89.7672 3108.09 97.8368L3109.95 98.5632ZM3124.73 81.0561C3131.59 76.9178 3140.99 74.8 3153.02 74.8V72.8C3140.78 72.8 3130.98 74.9488 3123.7 79.3439L3124.73 81.0561ZM3153.02 74.8C3165.18 74.8 3174.65 76.9186 3181.5 81.0561L3182.53 79.3439C3175.25 74.948 3165.38 72.8 3153.02 72.8V74.8ZM3181.52 81.0672C3188.52 85.0849 3193.5 90.9052 3196.49 98.5632L3198.35 97.8368C3195.2 89.7615 3189.92 83.5818 3182.52 79.3327L3181.52 81.0672ZM3196.49 98.5632C3199.49 106.283 3201.02 115.686 3201.02 126.8H3203.02C3203.02 115.514 3201.47 105.85 3198.35 97.8368L3196.49 98.5632ZM3201.02 126.8V187H3203.02V126.8H3201.02ZM3201.02 187C3201.02 197.978 3199.5 207.384 3196.48 215.242L3198.35 215.958C3201.47 207.816 3203.02 198.155 3203.02 187H3201.02ZM3196.48 215.242C3193.5 223.037 3188.51 228.991 3181.51 233.14L3182.53 234.86C3189.93 230.476 3195.21 224.163 3198.35 215.958L3196.48 215.242ZM3181.5 233.144C3174.65 237.281 3165.18 239.4 3153.02 239.4V241.4C3165.38 241.4 3175.25 239.252 3182.53 234.856L3181.5 233.144ZM3153.02 216C3156.9 216 3159.95 215.03 3161.95 212.88L3160.48 211.52C3159.01 213.103 3156.6 214 3153.02 214V216ZM3161.95 212.88C3163.83 210.852 3165.04 208.267 3165.6 205.179L3163.63 204.821C3163.13 207.599 3162.07 209.815 3160.48 211.52L3161.95 212.88ZM3165.6 205.179C3166.15 202.185 3166.42 199.125 3166.42 196H3164.42C3164.42 199.008 3164.16 201.948 3163.63 204.821L3165.6 205.179ZM3166.42 196V118H3164.42V196H3166.42ZM3166.42 118C3166.42 114.745 3166.15 111.682 3165.6 108.813L3163.63 109.187C3164.16 111.918 3164.42 114.855 3164.42 118H3166.42ZM3165.6 108.821C3165.04 105.733 3163.83 103.148 3161.95 101.12L3160.48 102.48C3162.07 104.185 3163.13 106.401 3163.63 109.179L3165.6 108.821ZM3161.95 101.12C3159.95 98.9699 3156.9 98 3153.02 98V100C3156.6 100 3159.01 100.897 3160.48 102.48L3161.95 101.12ZM3153.02 98C3149.38 98 3146.47 98.9836 3144.48 101.12L3145.95 102.48C3147.43 100.883 3149.72 100 3153.02 100V98ZM3144.48 101.12C3142.6 103.148 3141.39 105.733 3140.83 108.821L3142.8 109.179C3143.31 106.401 3144.37 104.185 3145.95 102.48L3144.48 101.12ZM3140.83 108.813C3140.29 111.682 3140.02 114.745 3140.02 118H3142.02C3142.02 114.855 3142.28 111.918 3142.8 109.187L3140.83 108.813ZM3140.02 118V196H3142.02V118H3140.02ZM3140.02 196C3140.02 199.11 3140.22 202.155 3140.63 205.135L3142.61 204.865C3142.21 201.978 3142.02 199.023 3142.02 196H3140.02ZM3140.63 205.179C3141.19 208.25 3142.32 210.824 3144.06 212.851L3145.58 211.549C3144.11 209.843 3143.11 207.617 3142.6 204.821L3140.63 205.179ZM3144.08 212.88C3146.08 215.03 3149.14 216 3153.02 216V214C3149.43 214 3147.02 213.103 3145.55 211.52L3144.08 212.88ZM3241.4 234L3240.89 234.856L3240.89 234.856L3241.4 234ZM3226.2 215.6L3225.27 215.958L3226.2 215.6ZM3226.2 98.2L3225.27 97.8368L3225.27 97.8368L3226.2 98.2ZM3241.4 80.2L3241.91 81.0633L3241.92 81.0561L3241.4 80.2ZM3299.2 80.2L3298.69 81.0561L3298.7 81.0618L3298.71 81.0672L3299.2 80.2ZM3314.6 98.2L3313.67 98.5632L3313.67 98.5632L3314.6 98.2ZM3314.6 215.6L3313.67 215.242L3313.67 215.242L3314.6 215.6ZM3299.2 234L3298.69 233.14L3298.69 233.144L3299.2 234ZM3278.4 212.2L3277.67 211.52L3277.67 211.52L3278.4 212.2ZM3281.8 205L3282.79 205.179L3282.79 205.179L3281.8 205ZM3281.8 109L3280.82 109.179L3280.82 109.187L3281.8 109ZM3278.4 101.8L3277.67 102.48L3277.67 102.48L3278.4 101.8ZM3262.4 101.8L3263.14 102.48L3263.14 102.48L3262.4 101.8ZM3259 109L3259.99 109.187L3259.99 109.179L3259 109ZM3258.8 205L3257.81 205.135L3257.82 205.157L3257.82 205.179L3258.8 205ZM3262 212.2L3261.25 212.851L3261.26 212.866L3261.27 212.88L3262 212.2ZM3270.2 239.4C3258.17 239.4 3248.78 237.282 3241.92 233.144L3240.89 234.856C3248.17 239.251 3257.97 241.4 3270.2 241.4V239.4ZM3241.92 233.144C3235.05 228.997 3230.13 223.043 3227.14 215.242L3225.27 215.958C3228.41 224.157 3233.62 230.47 3240.89 234.856L3241.92 233.144ZM3227.14 215.242C3224.13 207.384 3222.6 197.978 3222.6 187H3220.6C3220.6 198.155 3222.15 207.816 3225.27 215.958L3227.14 215.242ZM3222.6 187V126.8H3220.6V187H3222.6ZM3222.6 126.8C3222.6 115.686 3224.13 106.283 3227.14 98.5632L3225.27 97.8368C3222.15 105.85 3220.6 115.514 3220.6 126.8H3222.6ZM3227.14 98.5632C3230.12 90.8994 3235.04 85.0789 3241.91 81.0632L3240.9 79.3368C3233.63 83.5877 3228.42 89.7672 3225.27 97.8368L3227.14 98.5632ZM3241.92 81.0561C3248.78 76.9178 3258.17 74.8 3270.2 74.8V72.8C3257.97 72.8 3248.17 74.9488 3240.89 79.3439L3241.92 81.0561ZM3270.2 74.8C3282.37 74.8 3291.84 76.9186 3298.69 81.0561L3299.72 79.3439C3292.44 74.948 3282.57 72.8 3270.2 72.8V74.8ZM3298.71 81.0672C3305.71 85.0849 3310.69 90.9052 3313.67 98.5632L3315.54 97.8368C3312.39 89.7615 3307.1 83.5818 3299.7 79.3327L3298.71 81.0672ZM3313.67 98.5632C3316.68 106.283 3318.2 115.686 3318.2 126.8H3320.2C3320.2 115.514 3318.66 105.85 3315.54 97.8368L3313.67 98.5632ZM3318.2 126.8V187H3320.2V126.8H3318.2ZM3318.2 187C3318.2 197.978 3316.68 207.384 3313.67 215.242L3315.54 215.958C3318.66 207.816 3320.2 198.155 3320.2 187H3318.2ZM3313.67 215.242C3310.68 223.037 3305.7 228.991 3298.69 233.14L3299.71 234.86C3307.11 230.476 3312.39 224.163 3315.54 215.958L3313.67 215.242ZM3298.69 233.144C3291.84 237.281 3282.37 239.4 3270.2 239.4V241.4C3282.57 241.4 3292.44 239.252 3299.72 234.856L3298.69 233.144ZM3270.2 216C3274.09 216 3277.14 215.03 3279.14 212.88L3277.67 211.52C3276.2 213.103 3273.79 214 3270.2 214V216ZM3279.14 212.88C3281.02 210.852 3282.23 208.267 3282.79 205.179L3280.82 204.821C3280.32 207.599 3279.25 209.815 3277.67 211.52L3279.14 212.88ZM3282.79 205.179C3283.33 202.185 3283.6 199.125 3283.6 196H3281.6C3281.6 199.008 3281.34 201.948 3280.82 204.821L3282.79 205.179ZM3283.6 196V118H3281.6V196H3283.6ZM3283.6 118C3283.6 114.745 3283.33 111.682 3282.79 108.813L3280.82 109.187C3281.34 111.918 3281.6 114.855 3281.6 118H3283.6ZM3282.79 108.821C3282.23 105.733 3281.02 103.148 3279.14 101.12L3277.67 102.48C3279.25 104.185 3280.32 106.401 3280.82 109.179L3282.79 108.821ZM3279.14 101.12C3277.14 98.9699 3274.09 98 3270.2 98V100C3273.79 100 3276.2 100.897 3277.67 102.48L3279.14 101.12ZM3270.2 98C3266.56 98 3263.66 98.9836 3261.67 101.12L3263.14 102.48C3264.62 100.883 3266.91 100 3270.2 100V98ZM3261.67 101.12C3259.79 103.148 3258.58 105.733 3258.02 108.821L3259.99 109.179C3260.49 106.401 3261.55 104.185 3263.14 102.48L3261.67 101.12ZM3258.02 108.813C3257.48 111.682 3257.2 114.745 3257.2 118H3259.2C3259.2 114.855 3259.47 111.918 3259.99 109.187L3258.02 108.813ZM3257.2 118V196H3259.2V118H3257.2ZM3257.2 196C3257.2 199.11 3257.41 202.155 3257.81 205.135L3259.8 204.865C3259.4 201.978 3259.2 199.023 3259.2 196H3257.2ZM3257.82 205.179C3258.38 208.25 3259.51 210.824 3261.25 212.851L3262.76 211.549C3261.3 209.843 3260.3 207.617 3259.79 204.821L3257.82 205.179ZM3261.27 212.88C3263.27 215.03 3266.32 216 3270.2 216V214C3266.62 214 3264.21 213.103 3262.74 211.52L3261.27 212.88ZM3348.19 196.8L3347.2 196.878L3347.27 197.8H3348.19V196.8ZM3338.79 76.4V75.4H3337.71L3337.8 76.4778L3338.79 76.4ZM3371.19 76.4L3372.19 76.4975L3372.29 75.4H3371.19V76.4ZM3359.39 196.8V197.8H3360.3L3360.39 196.898L3359.39 196.8ZM3338.19 238H3337.19V239H3338.19V238ZM3338.19 207.6V206.6H3337.19V207.6H3338.19ZM3368.99 207.6H3369.99V206.6H3368.99V207.6ZM3368.99 238V239H3369.99V238H3368.99ZM3349.19 196.722L3339.79 76.3222L3337.8 76.4778L3347.2 196.878L3349.19 196.722ZM3338.79 77.4H3371.19V75.4H3338.79V77.4ZM3370.2 76.3025L3358.4 196.702L3360.39 196.898L3372.19 76.4975L3370.2 76.3025ZM3359.39 195.8H3348.19V197.8H3359.39V195.8ZM3339.19 238V207.6H3337.19V238H3339.19ZM3338.19 208.6H3368.99V206.6H3338.19V208.6ZM3367.99 207.6V238H3369.99V207.6H3367.99ZM3368.99 237H3338.19V239H3368.99V237Z" fill="#C4C4C4"/>
</svg>
