<svg width="25" height="25" viewBox="0 0 25 25" fill="none" xmlns="http://www.w3.org/2000/svg">
<path fill-rule="evenodd" clip-rule="evenodd" d="M0.16701 5.70536L0.16701 0.166974L5.7054 0.166974L5.7054 5.70536L0.16701 5.70536ZM0.16511 9.39899L0.16511 14.9374H5.7035L5.7035 9.39899L0.16511 9.39899ZM0.16701 18.6286L0.16701 24.167L5.7054 24.167L5.7054 18.6286L0.16701 18.6286ZM9.3976 9.39804L9.3976 14.9364L14.936 14.9364V9.39804H9.3976ZM9.3976 5.70536L9.3976 0.166973L14.936 0.166974L14.936 5.70536L9.3976 5.70536ZM18.6282 18.6286L18.6282 24.167L24.1666 24.167L24.1666 18.6286H18.6282ZM18.6282 14.9364V9.39804L24.1666 9.39804L24.1666 14.9364H18.6282ZM18.6282 0.166973V5.70536H24.1666L24.1666 0.166974L18.6282 0.166973Z" fill="black"/>
</svg>
